<svg width="29" height="30" viewBox="0 0 29 30" fill="none" xmlns="http://www.w3.org/2000/svg">
<rect y="0.405273" width="29" height="29" rx="14.5" fill="white"/>
<path d="M16.4208 15.3653H11.2767C11.1463 15.3653 11.037 15.3212 10.9487 15.233C10.8605 15.1447 10.8164 15.0354 10.8164 14.905C10.8164 14.7746 10.8605 14.6652 10.9487 14.577C11.037 14.4888 11.1463 14.4447 11.2767 14.4447H16.4208L14.1652 12.1891C14.0732 12.0971 14.029 11.9897 14.0329 11.8669C14.0367 11.7442 14.0847 11.6367 14.1767 11.5447C14.2688 11.4603 14.3762 11.4162 14.4989 11.4123C14.6217 11.4085 14.7291 11.4526 14.8212 11.5447L17.8593 14.5828C17.9053 14.6288 17.9379 14.6787 17.9571 14.7324C17.9763 14.7861 17.9859 14.8436 17.9859 14.905C17.9859 14.9664 17.9763 15.0239 17.9571 15.0776C17.9379 15.1313 17.9053 15.1812 17.8593 15.2272L14.8212 18.2653C14.7368 18.3497 14.6313 18.3919 14.5047 18.3919C14.3781 18.3919 14.2688 18.3497 14.1767 18.2653C14.0847 18.1733 14.0386 18.0639 14.0386 17.9373C14.0386 17.8108 14.0847 17.7014 14.1767 17.6094L16.4208 15.3653Z" fill="#181818"/>
</svg>
