<svg width="36" height="36" viewBox="0 0 36 36" fill="none" xmlns="http://www.w3.org/2000/svg">
<path d="M23.9345 19.5084H8.00191C7.59795 19.5084 7.25934 19.3717 6.98607 19.0985C6.7128 18.8252 6.57617 18.4866 6.57617 18.0826C6.57617 17.6787 6.7128 17.3401 6.98607 17.0668C7.25934 16.7935 7.59795 16.6569 8.00191 16.6569H23.9345L16.9484 9.6708C16.6632 9.38565 16.5266 9.05298 16.5385 8.67279C16.5504 8.29259 16.6989 7.95992 16.984 7.67477C17.2692 7.41339 17.6019 7.27675 17.9821 7.26487C18.3623 7.25299 18.6949 7.38962 18.9801 7.67477L28.3899 17.0846C28.5325 17.2272 28.6335 17.3817 28.6929 17.548C28.7523 17.7143 28.782 17.8925 28.782 18.0826C28.782 18.2727 28.7523 18.451 28.6929 18.6173C28.6335 18.7836 28.5325 18.9381 28.3899 19.0807L18.9801 28.4905C18.7187 28.7519 18.392 28.8826 17.9999 28.8826C17.6078 28.8826 17.2692 28.7519 16.984 28.4905C16.6989 28.2054 16.5563 27.8667 16.5563 27.4747C16.5563 27.0826 16.6989 26.744 16.984 26.4588L23.9345 19.5084Z" fill="#181818"/>
</svg>
