<svg width="29" height="30" viewBox="0 0 29 30" fill="none" xmlns="http://www.w3.org/2000/svg">
<rect y="0.405273" width="29" height="29" rx="14.5" fill="white"/>
<path d="M16.4208 15.3658H11.2767C11.1463 15.3658 11.037 15.3217 10.9487 15.2335C10.8605 15.1452 10.8164 15.0359 10.8164 14.9055C10.8164 14.7751 10.8605 14.6657 10.9487 14.5775C11.037 14.4893 11.1463 14.4452 11.2767 14.4452H16.4208L14.1652 12.1896C14.0732 12.0976 14.029 11.9901 14.0329 11.8674C14.0367 11.7446 14.0847 11.6372 14.1767 11.5452C14.2688 11.4608 14.3762 11.4167 14.4989 11.4128C14.6217 11.409 14.7291 11.4531 14.8212 11.5452L17.8593 14.5833C17.9053 14.6293 17.9379 14.6792 17.9571 14.7329C17.9763 14.7866 17.9859 14.8441 17.9859 14.9055C17.9859 14.9669 17.9763 15.0244 17.9571 15.0781C17.9379 15.1318 17.9053 15.1817 17.8593 15.2277L14.8212 18.2658C14.7368 18.3502 14.6313 18.3924 14.5047 18.3924C14.3781 18.3924 14.2688 18.3502 14.1767 18.2658C14.0847 18.1737 14.0386 18.0644 14.0386 17.9378C14.0386 17.8112 14.0847 17.7019 14.1767 17.6099L16.4208 15.3658Z" fill="#181818"/>
</svg>
