<svg width="29" height="30" viewBox="0 0 29 30" fill="none" xmlns="http://www.w3.org/2000/svg">
<rect y="0.405273" width="29" height="29" rx="14.5" fill="#202020"/>
<path d="M16.4227 15.3657H11.2787C11.1483 15.3657 11.0389 15.3216 10.9507 15.2333C10.8625 15.1451 10.8184 15.0358 10.8184 14.9054C10.8184 14.7749 10.8625 14.6656 10.9507 14.5774C11.0389 14.4892 11.1483 14.445 11.2787 14.445H16.4227L14.1672 12.1895C14.0751 12.0974 14.031 11.99 14.0348 11.8673C14.0387 11.7445 14.0866 11.6371 14.1787 11.545C14.2707 11.4607 14.3781 11.4165 14.5009 11.4127C14.6237 11.4089 14.7311 11.453 14.8231 11.545L17.8612 14.5831C17.9072 14.6292 17.9399 14.679 17.959 14.7327C17.9782 14.7864 17.9878 14.844 17.9878 14.9054C17.9878 14.9667 17.9782 15.0243 17.959 15.078C17.9399 15.1317 17.9072 15.1816 17.8612 15.2276L14.8231 18.2657C14.7387 18.3501 14.6332 18.3923 14.5067 18.3923C14.3801 18.3923 14.2707 18.3501 14.1787 18.2657C14.0866 18.1736 14.0406 18.0643 14.0406 17.9377C14.0406 17.8111 14.0866 17.7018 14.1787 17.6097L16.4227 15.3657Z" fill="white"/>
</svg>
