<svg width="120" height="134" viewBox="0 0 120 134" fill="none" xmlns="http://www.w3.org/2000/svg">
<g clip-path="url(#clip0_338_760)">
<path d="M68.1644 45.8723C68.8765 45.8601 68.8765 45.9951 69.5763 45.9828C70.2884 45.9583 70.2884 46.2038 71.0005 46.1793C71.1356 46.1793 71.197 45.8846 71.197 45.7005C71.197 45.504 71.1356 45.3199 71.0005 45.3199C70.2884 45.2953 70.2884 45.3813 69.5886 45.369C68.8765 45.3444 68.8888 45.3444 68.1767 45.3199C68.1767 45.3199 67.968 45.3444 67.9557 45.3444C67.7838 45.3444 67.8943 45.504 67.8943 45.6759C67.8943 45.8355 67.9926 45.8846 68.1644 45.8846V45.8723Z" fill="white"/>
<path d="M64.8742 45.9214C65.5863 45.9583 65.2302 45.9828 65.9423 46.0319C65.9546 46.0319 66.3106 46.1056 66.3229 46.1056C66.5194 46.0933 66.6912 45.9337 66.679 45.6759C66.679 45.4058 66.4825 45.2707 66.2861 45.283C65.574 45.3321 65.574 45.3076 64.8619 45.3567C64.7268 45.3567 64.69 45.5408 64.6777 45.6882C64.6777 45.8478 64.7146 45.9337 64.8742 45.9337V45.9214Z" fill="white"/>
<path d="M58.5628 46.0196C58.5628 46.0196 58.8083 45.9582 58.8206 45.9582C59.2994 45.9091 59.0662 45.9091 59.5327 45.8723C59.5573 45.8723 59.5695 45.8477 59.5818 45.8477C59.5941 45.8477 59.6064 45.8723 59.6309 45.8723C60.1097 45.9091 59.8765 45.9214 60.343 45.9582C60.343 45.9582 60.5886 46.0196 60.6008 46.0196C60.7359 46.0196 60.8464 45.8846 60.8464 45.6636C60.8464 45.4548 60.7113 45.3321 60.5886 45.3443C60.1097 45.3935 60.1097 45.3689 59.6432 45.3935C59.6186 45.3935 59.6064 45.3935 59.5941 45.418C59.5818 45.4057 59.5695 45.3935 59.545 45.3935C59.0662 45.3566 59.0662 45.3935 58.5996 45.3443C58.4646 45.3443 58.3418 45.4548 58.3418 45.6636C58.3418 45.8723 58.4523 46.0073 58.5873 46.0196H58.5628Z" fill="white"/>
<path d="M61.8287 45.8354C62.3566 45.8354 62.3566 45.9582 62.8846 45.9582C63.0196 45.9582 63.1669 45.8722 63.1669 45.7004C63.1669 45.5285 63.0073 45.4794 62.8846 45.4794C62.3566 45.4794 62.3566 45.5162 61.8287 45.5162C61.6936 45.5162 61.6445 45.5653 61.6445 45.7004C61.6445 45.8354 61.6936 45.8477 61.8287 45.8477V45.8354Z" fill="white"/>
<path d="M60.098 51.6796C59.8893 51.6919 59.7174 51.6919 59.5701 51.7041C59.2754 51.741 59.3491 51.7532 59.1158 51.7778C59.0667 51.7778 59.0176 51.7778 59.0176 51.8269C59.0176 51.876 59.0667 51.876 59.1035 51.876C59.3368 51.9129 59.2631 51.962 59.5578 51.9865C59.7051 51.9988 59.877 52.0356 60.0857 52.0479C60.2944 52.0602 60.5154 52.097 60.7733 52.1093C61.0188 52.1216 61.3012 52.0479 61.5836 52.0602C61.8659 52.0725 62.1729 52.0602 62.4798 52.0847C62.7868 52.097 72.5596 52.1339 72.8911 52.1339C73.2226 52.1339 73.5541 52.1584 73.8856 52.1584C74.2171 52.1584 74.5363 52.2198 74.8678 52.2198C75.1993 52.2198 75.5308 52.1584 75.85 52.1584C76.1446 52.1584 76.427 52.1461 76.6971 52.1339C77.004 52.1339 77.2864 52.097 77.5443 52.0847C77.7898 52.0725 78.0231 52.1216 78.2318 52.097C78.4405 52.0847 78.6124 52.0847 78.7474 52.0602C79.0421 52.0356 78.993 52.0847 79.214 52.0602C79.3122 52.0479 79.4104 51.8883 79.3982 51.7778C79.3859 51.6919 79.2877 51.6673 79.2017 51.655C78.9684 51.6182 79.0421 51.5445 78.7597 51.5077C78.6124 51.4954 78.4405 51.4831 78.2318 51.4709C78.0231 51.4463 77.8021 51.4586 77.5443 51.434C77.2864 51.4218 76.9918 51.3849 76.6971 51.3727C76.427 51.3727 76.1324 51.4709 75.8377 51.4709C75.5185 51.4709 75.1993 51.3358 74.8678 51.3358C74.5486 51.3358 74.2171 51.4095 73.8856 51.4218C73.5541 51.4218 73.2226 51.4463 72.8911 51.4586C72.5596 51.4586 62.7868 51.4954 62.4798 51.5077C62.1729 51.52 61.8659 51.5077 61.5836 51.5077C61.3012 51.52 61.0311 51.5568 60.7733 51.5814C60.5277 51.5936 60.2944 51.6428 60.098 51.655V51.6796Z" fill="white"/>
<path d="M53.2972 54.528C53.0885 54.5403 52.9166 54.5402 52.7693 54.5525C52.4746 54.5894 52.5483 54.6016 52.315 54.6262C52.2659 54.6262 52.2168 54.6262 52.2168 54.6753C52.2168 54.7244 52.2659 54.7244 52.3027 54.7244C52.536 54.7612 52.4623 54.8104 52.757 54.8349C52.9043 54.8472 53.0762 54.884 53.2849 54.8963C53.4937 54.9086 53.7146 54.9454 53.9725 54.9577C54.218 54.97 54.5004 54.8963 54.7828 54.9086C55.0652 54.9209 55.3721 54.9086 55.679 54.9331C55.986 54.9454 65.7588 54.9822 66.0903 54.9822C66.4218 54.9822 66.7533 55.0068 67.0848 55.0068C67.4163 55.0068 67.7355 55.0682 68.067 55.0682C68.3985 55.0682 68.73 55.0068 69.0492 55.0068C69.3438 55.0068 69.6262 54.9945 69.8963 54.9822C70.2033 54.9822 70.4857 54.9454 70.7435 54.9331C70.989 54.9209 71.2223 54.97 71.431 54.9454C71.6397 54.9331 71.8116 54.9331 71.9467 54.9086C72.2413 54.884 72.1922 54.9331 72.4132 54.9086C72.5114 54.8963 72.6097 54.7367 72.5974 54.6262C72.5851 54.5403 72.4869 54.5157 72.4009 54.5034C72.1677 54.4666 72.2413 54.3929 71.959 54.3561C71.8116 54.3438 71.6397 54.3315 71.431 54.3193C71.2223 54.2947 71.0013 54.307 70.7435 54.2824C70.4857 54.2701 70.191 54.2333 69.8963 54.221C69.6262 54.221 69.3316 54.3193 69.0369 54.3193C68.7177 54.3193 68.3985 54.1842 68.067 54.1842C67.7478 54.1842 67.4163 54.2579 67.0848 54.2701C66.7533 54.2701 66.4218 54.2947 66.0903 54.307C65.7588 54.307 55.986 54.3438 55.679 54.3561C55.3721 54.3684 55.0652 54.3561 54.7828 54.3561C54.5004 54.3684 54.2303 54.4052 53.9725 54.4298C53.7269 54.442 53.4937 54.4911 53.2972 54.5034V54.528Z" fill="white"/>
<path d="M56.2916 51.8882C56.2916 51.8882 56.3776 51.9005 56.439 51.9128C56.6722 51.9496 57.0406 51.9496 57.3598 51.9619C57.679 51.9619 57.9491 52.011 58.1824 51.9742C58.3052 51.9619 58.4156 51.9742 58.4893 51.9742C58.563 51.9619 58.5507 51.9619 58.5998 51.9373C58.6735 51.9128 58.7349 51.8023 58.698 51.7409C58.6858 51.7163 58.5998 51.7163 58.5753 51.7041C58.5261 51.6918 58.5507 51.6549 58.477 51.6427C58.4034 51.6304 58.3052 51.6058 58.1824 51.5936C57.9491 51.5567 57.6176 51.5322 57.2984 51.5445C56.9792 51.5445 56.66 51.5936 56.4144 51.6427C56.353 51.6427 56.3039 51.6427 56.2671 51.6795C56.2303 51.7163 56.1934 51.7286 56.1566 51.7286C56.0829 51.7409 56.0952 51.7654 56.0461 51.79C56.0093 51.79 55.9479 51.8146 55.9724 51.8391C55.9724 51.8514 55.997 51.8759 56.0093 51.8882C56.0584 51.9005 56.0707 51.8882 56.132 51.9128C56.1689 51.9128 56.2303 51.8882 56.2671 51.9005L56.2916 51.8882Z" fill="white"/>
<path d="M71.492 55.0067C71.5902 55.0313 71.7007 55.0435 71.8726 55.0558C72.3637 55.0681 72.3637 55.154 72.8671 55.1663C72.9775 55.1663 73.0144 54.8962 73.0144 54.712C73.0144 54.5156 73.0512 54.3314 72.9407 54.3314L72.8671 54.2946C72.376 54.3069 72.376 54.2701 71.8726 54.2823C71.3815 54.2946 71.3815 54.356 70.8781 54.3805C70.829 54.3805 70.7799 54.4297 70.7308 54.5033C70.6448 54.5524 70.5712 54.5893 70.3502 54.6138C70.2888 54.6138 70.252 54.6138 70.252 54.7366C70.252 54.8471 70.2888 54.9944 70.3502 55.0067C70.7553 55.0313 71.0991 55.0067 71.492 55.0435V55.0067Z" fill="white"/>
<path d="M74.7445 54.2701C74.2411 54.2823 74.2411 54.3437 73.7255 54.3683C73.6395 54.3683 73.4922 54.5524 73.4922 54.7121C73.4922 54.8717 73.6395 54.9208 73.7255 54.9208C74.2288 54.9331 74.2288 55.0436 74.7445 55.0558C75.2479 55.0681 80.2448 55.154 80.7604 55.1663C80.8709 55.1663 80.9078 54.8962 80.9078 54.7121C80.9078 54.5156 80.9569 54.2823 80.8464 54.2701H80.7604C80.2571 54.2823 75.2601 54.2455 74.7445 54.2578V54.2701Z" fill="white"/>
<path d="M69.5879 54.9576C69.6616 54.9576 69.7721 54.8471 69.7721 54.6998C69.7721 54.5525 69.6739 54.3192 69.5879 54.3192C69.2687 54.3192 69.2687 54.3806 68.9495 54.3806C68.8758 54.3806 68.7285 54.5525 68.7285 54.6998C68.7285 54.8471 68.8758 54.8717 68.9495 54.8717C69.2687 54.8717 69.2687 54.9454 69.5879 54.9454V54.9576Z" fill="white"/>
<path d="M68.2378 54.8962C68.3114 54.8962 68.4096 54.8103 68.4096 54.6998C68.4096 54.5893 68.3114 54.3928 68.2378 54.3928C68.0536 54.3928 68.0536 54.4419 67.8694 54.4419C67.7958 54.4419 67.6484 54.577 67.6484 54.6998C67.6484 54.8225 67.7958 54.8348 67.8694 54.8348C68.0536 54.8348 68.0536 54.8962 68.2378 54.8962Z" fill="white"/>
<path d="M70.4977 48.8067C70.1048 48.8067 70.1048 48.8926 69.6996 48.8926C69.3068 48.8926 69.3068 48.9172 68.9016 48.9172C68.5087 48.9172 68.5087 48.8803 68.1036 48.8926C68.0176 48.8926 68.0299 48.954 68.0299 49.0768C68.0299 49.1996 68.0299 49.2732 68.1036 49.2732C68.4964 49.2732 68.4964 49.3714 68.9016 49.3837C69.3068 49.3837 69.3068 49.3101 69.6996 49.3223C70.0925 49.3223 70.1048 49.2241 70.4977 49.2241C70.8905 49.2241 70.8906 49.3346 71.2957 49.3469C71.4062 49.3469 71.5167 49.2364 71.5167 49.0891C71.5167 48.9417 71.4062 48.819 71.308 48.8067L71.1852 48.7576C70.7923 48.7576 70.9028 48.8067 70.51 48.8067H70.4977Z" fill="white"/>
<path d="M66.1875 49.0767C66.1875 49.1995 66.1875 49.2609 66.298 49.2609C66.7891 49.2854 66.7891 49.3222 67.2925 49.3468C67.403 49.3468 67.4889 49.2117 67.4889 49.089C67.4889 48.9662 67.403 48.7943 67.2925 48.7943C66.8014 48.8189 66.8014 48.8803 66.3103 48.9048C66.1998 48.9048 66.1998 48.9539 66.1998 49.089L66.1875 49.0767Z" fill="white"/>
<path d="M65.6232 48.8066C65.3285 48.8558 65.3899 48.7821 65.083 48.8312C65.0093 48.8312 64.9725 49.0031 64.9847 49.1013C64.9847 49.1872 65.0461 49.1381 65.1075 49.1504C65.4022 49.1995 65.4022 49.2977 65.6968 49.3468C65.8073 49.3591 65.9178 49.2609 65.9301 49.1136C65.9301 48.9662 65.8442 48.8189 65.7337 48.8066C65.7214 48.8066 65.6355 48.8066 65.6232 48.8066Z" fill="white"/>
<path d="M72.1429 70.3781C72.0693 70.3904 72.0815 70.4149 72.0324 70.4395C71.9956 70.4395 71.9342 70.464 71.9588 70.4886C71.9588 70.5009 71.9833 70.5254 71.9956 70.5377C72.0447 70.55 72.057 70.5377 72.1184 70.5622C72.1552 70.5622 72.2166 70.5377 72.2534 70.55C72.3025 70.55 72.3394 70.5622 72.4007 70.5745C72.634 70.6114 73.0023 70.6114 73.3216 70.6236C73.6408 70.6236 73.9109 70.6727 74.1441 70.6359C74.2669 70.6236 74.3774 70.6359 74.4511 70.6359C74.5248 70.6236 74.5125 70.6236 74.5616 70.5991C74.6352 70.5745 74.6966 70.464 74.6598 70.4026C74.6475 70.3781 74.5616 70.3781 74.537 70.3658C74.4879 70.3535 74.5125 70.3167 74.4388 70.3044C74.3651 70.2921 74.2669 70.2676 74.1441 70.2553C73.9109 70.2185 73.5794 70.1939 73.2602 70.2062C72.941 70.2062 72.6217 70.2553 72.3762 70.3044C72.3148 70.3044 72.2657 70.3044 72.2289 70.3412C72.192 70.3781 72.1552 70.3904 72.1184 70.3904L72.1429 70.3781Z" fill="white"/>
<path d="M78.6741 73.2879C79.73 73.2879 79.73 73.423 80.7981 73.4352H80.8718C81.1051 73.4352 81.3383 73.2265 81.3383 73.0424C81.3383 72.8582 81.0314 72.7477 80.7981 72.7477C79.7423 72.7477 79.73 72.6127 78.6741 72.6249C78.4531 72.6249 78.2812 72.8828 78.2812 73.0546C78.2812 73.2265 78.4654 73.2879 78.6864 73.3002L78.6741 73.2879Z" fill="white"/>
<path d="M81.8542 67.4561L81.7314 67.407C81.3263 67.407 81.449 67.4561 81.0562 67.4561C80.651 67.4561 77.4466 67.542 77.0414 67.542C76.6486 67.542 76.6486 67.5666 76.2434 67.5666C75.8505 67.5666 75.8505 67.5298 75.4454 67.542C75.3594 67.542 75.3717 67.6034 75.3717 67.7262C75.3717 67.849 75.3717 67.9226 75.4454 67.9226C75.8382 67.9226 75.8382 68.0209 76.2434 68.0331C76.6486 68.0331 76.6486 67.9595 77.0414 67.9717C77.4343 67.9717 80.651 67.8735 81.0562 67.8735C81.449 67.8735 81.449 67.984 81.8542 67.9963C81.9647 67.9963 82.0752 67.8858 82.0752 67.7385C82.0752 67.5911 81.9647 67.4684 81.8665 67.4561H81.8542Z" fill="white"/>
<path d="M74.622 67.9963C74.7325 67.9963 74.8184 67.8613 74.8184 67.7385C74.8184 67.6157 74.7325 67.4438 74.622 67.4438C74.1309 67.4684 74.1309 67.5298 73.6398 67.5543C73.5293 67.5543 73.5293 67.6035 73.5293 67.7385C73.5293 67.8736 73.5293 67.9227 73.6398 67.9227C74.1309 67.9472 74.1309 67.9841 74.6343 68.0086L74.622 67.9963Z" fill="white"/>
<path d="M72.4376 67.7998C72.7323 67.8489 72.7323 67.9472 73.0269 67.9963C73.1374 68.0085 73.2479 67.9103 73.2602 67.763C73.2602 67.6157 73.1742 67.4683 73.0638 67.4561C73.0515 67.4561 72.9655 67.4561 72.9533 67.4561C72.6586 67.5052 72.72 67.4315 72.413 67.4806C72.3394 67.4806 72.3025 67.6525 72.3148 67.7507C72.3148 67.8367 72.3762 67.7875 72.4376 67.7998Z" fill="white"/>
<path d="M76.5002 57.5482C76.6843 57.5482 76.8685 57.4254 76.8685 57.3149C76.8685 57.2044 76.6966 57.0448 76.5002 57.0448C75.7512 57.0448 75.9845 57.0325 75.2356 57.0203H74.99C74.7813 57.0203 74.6094 57.2044 74.6217 57.3149C74.6217 57.4377 74.7936 57.4745 75.0023 57.4623C75.7512 57.4623 75.7512 57.5482 76.5124 57.5359L76.5002 57.5482Z" fill="white"/>
<path d="M80.6992 64.5832C80.6992 64.7305 80.9202 64.8901 81.0307 64.8901C81.5095 64.8901 81.5095 64.9515 82.0006 64.9515C82.1234 64.9515 82.2707 64.7182 82.2707 64.5832C82.2707 64.4481 82.1234 64.3376 82.0006 64.3376C81.5218 64.3376 81.5218 64.4113 81.0307 64.4113C80.9079 64.4113 80.6992 64.4359 80.6992 64.5832Z" fill="white"/>
<path d="M79.9627 64.9637C80.0854 64.9637 80.2328 64.7305 80.2328 64.5954C80.2328 64.4603 80.0854 64.3499 79.9627 64.3499C79.6803 64.3499 79.6803 64.4235 79.3979 64.4235C79.2751 64.4235 79.0664 64.4481 79.0664 64.5954C79.0664 64.7427 79.2751 64.9023 79.3979 64.9023C79.6803 64.9023 79.6803 64.9637 79.9627 64.9637Z" fill="white"/>
<path d="M76.4649 60.6052C76.3298 60.6052 76.3421 60.6912 76.3421 60.814C76.3421 60.949 76.3298 60.9981 76.4649 60.9981C77.091 60.9981 77.091 60.9613 77.7172 60.9613C78.3433 60.9613 78.3433 60.9858 78.9695 60.9858C79.5956 60.9858 79.5956 61.3542 80.2218 61.3542C80.8479 61.3542 80.6515 61.4401 81.2776 61.4524L81.4741 61.3664C81.6337 61.3664 81.8056 61.1209 81.8056 60.8385C81.8056 60.5561 81.6337 60.3474 81.4618 60.3474C80.8356 60.3474 80.8356 60.5561 80.2218 60.5684C79.5956 60.5684 79.5956 60.5316 78.9695 60.5316C78.3433 60.5316 78.3433 60.4579 77.7172 60.4579C77.091 60.4579 77.091 60.5561 76.4649 60.5684V60.6052Z" fill="white"/>
<path d="M79.7051 75.9275C79.7051 76.0994 79.8892 76.1608 80.1102 76.173C81.1661 76.173 81.1661 76.3081 82.2342 76.3204H82.3079C82.5412 76.3204 82.7744 76.1117 82.7744 75.9275C82.7744 75.7433 82.4675 75.6328 82.2342 75.6328C81.1784 75.6328 81.1661 75.4978 80.1102 75.5101C79.8892 75.5101 79.7173 75.7679 79.7173 75.9398L79.7051 75.9275Z" fill="white"/>
<path d="M76.7342 75.6083C76.5255 75.6083 76.3536 75.7925 76.3659 75.903C76.3659 76.0258 76.5377 76.0626 76.7465 76.0503C77.4954 76.0503 77.4954 76.1363 78.2566 76.124C78.4407 76.124 78.6249 76.0012 78.6249 75.8907C78.6249 75.7802 78.453 75.6206 78.2566 75.6206C77.5077 75.6206 77.7409 75.6083 76.992 75.5961H76.7465L76.7342 75.6083Z" fill="white"/>
<path d="M70.6822 75.6083C70.1789 75.6083 69.7614 75.7925 69.7737 75.903C69.7737 76.0258 70.2034 76.0626 70.7191 76.0503C72.5607 76.0503 72.5607 76.1363 74.4023 76.124C74.8688 76.124 75.2986 76.0012 75.3108 75.8907C75.3108 75.7802 74.8811 75.6206 74.4023 75.6206C72.5607 75.6206 73.1377 75.6083 71.2961 75.5961C71.2961 75.5961 70.6945 75.5961 70.6822 75.5961V75.6083Z" fill="white"/>
<path d="M71.8604 82.938C71.0869 82.938 71.0992 82.9871 70.3257 82.9994C69.5522 82.9994 69.5645 83.0608 68.791 83.073C68.6683 83.073 68.4473 83.0976 68.4473 83.1835C68.4473 83.2695 68.6683 83.3554 68.791 83.3554C69.5645 83.3554 69.5645 83.3923 70.3257 83.4045C71.0992 83.4045 71.0992 83.3923 71.8604 83.4045H71.9832C72.1428 83.4045 72.0814 83.2818 72.0691 83.1835C72.0691 83.0853 72.0077 82.9503 71.8481 82.9503L71.8604 82.938Z" fill="white"/>
<path d="M73.5303 79.2424C72.7568 79.2424 72.7691 79.2915 71.9956 79.3038C71.2222 79.3038 71.2344 79.3652 70.461 79.3775C70.3382 79.3775 70.1172 79.402 70.1172 79.488C70.1172 79.5739 70.3382 79.6599 70.461 79.6599C71.2344 79.6599 71.2344 79.6967 71.9956 79.709C72.7691 79.709 72.7691 79.6967 73.5303 79.709H73.6531C73.8127 79.709 73.7513 79.5862 73.739 79.488C73.739 79.3898 73.6777 79.2547 73.518 79.2547L73.5303 79.2424Z" fill="white"/>
<path d="M76.0833 72.7968C74.2294 72.7968 74.2417 72.8459 72.3878 72.8581C70.5339 72.8581 70.5462 72.9195 68.6923 72.9318C68.3976 72.9318 67.8574 72.9564 67.8574 73.0423C67.8574 73.1282 68.3854 73.2142 68.6923 73.2142C70.5462 73.2142 70.5339 73.251 72.3878 73.2633C74.2417 73.2633 74.2417 73.251 76.0833 73.2633H76.3903C76.7709 73.2633 76.6112 73.1405 76.6112 73.0423C76.6112 72.9441 76.4639 72.809 76.0833 72.809V72.7968Z" fill="white"/>
<path d="M77.9384 82.8151C77.3 82.8397 77.3 82.8888 76.6493 82.9134C76.5633 82.9134 76.502 83.073 76.502 83.1712C76.502 83.2817 76.5633 83.2817 76.6493 83.294C77.2877 83.3185 77.2018 83.5518 77.8525 83.5763H77.9507C78.0735 83.5763 78.1962 83.3062 78.1962 83.1589C78.1962 83.0116 78.0489 82.7906 77.9261 82.8029L77.9384 82.8151Z" fill="white"/>
<path d="M75.4948 82.938C75.0159 82.938 75.0159 83.0117 74.5249 83.0117C74.4021 83.0117 74.1934 83.0362 74.1934 83.1835C74.1934 83.3309 74.4144 83.4905 74.5249 83.4905C75.0037 83.4905 75.0037 83.5519 75.4948 83.5519C75.6175 83.5519 75.7649 83.3186 75.7649 83.1835C75.7649 83.0485 75.6175 82.938 75.4948 82.938Z" fill="white"/>
<path d="M73.4568 82.938C73.1744 82.938 73.1744 83.0117 72.892 83.0117C72.7693 83.0117 72.5605 83.0362 72.5605 83.1835C72.5605 83.3309 72.7693 83.4905 72.892 83.4905C73.1744 83.4905 73.1744 83.5519 73.4568 83.5519C73.5796 83.5519 73.7269 83.3186 73.7269 83.1835C73.7269 83.0485 73.5796 82.938 73.4568 82.938Z" fill="white"/>
<path d="M79.7782 78.9724C79.152 78.9724 79.152 79.1811 78.5382 79.1934C77.912 79.1934 77.912 79.1565 77.2859 79.1565C76.6597 79.1565 76.6597 79.0829 76.0336 79.0829C75.4074 79.0829 75.4074 79.1811 74.7813 79.1934C74.6462 79.1934 74.6585 79.2793 74.6585 79.4021C74.6585 79.5371 74.6462 79.5863 74.7813 79.5863C75.4074 79.5863 75.4074 79.5494 76.0336 79.5494C76.6597 79.5494 76.6597 79.574 77.2859 79.574C77.912 79.574 77.912 79.9423 78.5382 79.9423C79.1643 79.9423 78.9679 80.0282 79.594 80.0405L79.7905 79.9546C79.9501 79.9546 80.122 79.709 80.122 79.4266C80.122 79.1443 79.9501 78.9355 79.7782 78.9355V78.9724Z" fill="white"/>
<path d="M81.855 78.9723C81.3884 79.0583 81.4007 79.2547 80.9342 79.3407C80.8482 79.3529 80.7623 79.267 80.75 79.4266C80.75 79.6108 80.7991 79.9054 80.9096 79.93C81.3761 80.0159 81.2779 79.8809 81.7445 79.9668C81.769 79.9668 81.8918 79.9791 81.9164 79.9791C82.076 79.9545 82.2356 79.6844 82.2233 79.402C82.211 79.1197 82.0146 78.9355 81.855 78.9723Z" fill="white"/>
<path d="M64.5542 85.725C64.3209 85.725 64.1367 85.9828 64.1367 86.1547C64.1367 86.3266 64.3209 86.388 64.5542 86.4002C65.6837 86.4002 65.6714 86.5353 66.8009 86.5476H66.8746C67.1201 86.5476 67.3657 86.3389 67.3657 86.1547C67.3657 85.9705 67.0465 85.86 66.8009 85.86C65.6714 85.86 65.6714 85.725 64.5542 85.7373V85.725Z" fill="white"/>
<path d="M61.2523 85.8599H60.9944C60.7734 85.8599 60.6016 86.0441 60.6016 86.1546C60.6016 86.2774 60.7857 86.3142 61.0067 86.3019C61.8048 86.3019 61.8047 86.3879 62.6028 86.3756C62.7992 86.3756 62.9957 86.2528 62.9957 86.1423C62.9957 86.0318 62.8115 85.8722 62.6028 85.8722C61.8047 85.8722 62.0503 85.8599 61.2645 85.8477L61.2523 85.8599Z" fill="white"/>
<path d="M60.9212 93.1774C60.1109 93.1774 60.1109 93.2265 59.2883 93.2388C58.478 93.2388 58.478 93.3001 57.6554 93.3124C57.5204 93.3124 57.2871 93.337 57.2871 93.4229C57.2871 93.5089 57.5204 93.5948 57.6554 93.5948C58.4657 93.5948 58.4657 93.6316 59.2883 93.6439C60.0986 93.6439 60.0986 93.6316 60.9212 93.6439H61.0563C61.2282 93.6439 61.1545 93.5211 61.1545 93.4229C61.1545 93.3247 61.0931 93.1896 60.9212 93.1896V93.1774Z" fill="white"/>
<path d="M64.7755 93.165C64.2598 93.165 64.2598 93.2387 63.7564 93.2387C63.6337 93.2387 63.4004 93.2633 63.4004 93.4106C63.4004 93.5579 63.6337 93.7175 63.7564 93.7175C64.2721 93.7175 64.2721 93.7789 64.7755 93.7789C64.8982 93.7789 65.0578 93.5456 65.0578 93.4106C65.0578 93.2755 64.8982 93.165 64.7755 93.165Z" fill="white"/>
<path d="M62.6158 93.165C62.3212 93.165 62.3212 93.2387 62.0143 93.2387C61.8915 93.2387 61.6582 93.2633 61.6582 93.4106C61.6582 93.5579 61.8915 93.7175 62.0143 93.7175C62.3089 93.7175 62.3089 93.7789 62.6158 93.7789C62.7386 93.7789 62.8982 93.5456 62.8982 93.4106C62.8982 93.2755 62.7386 93.165 62.6158 93.165Z" fill="white"/>
<path d="M61.227 89.1994C60.564 89.1994 60.564 89.4081 59.901 89.4204C59.2381 89.4204 59.238 89.3836 58.5751 89.3836C57.9121 89.3836 57.9121 89.3099 57.2491 89.3099C56.5861 89.3099 56.5861 89.4081 55.9231 89.4204C55.7758 89.4204 55.8004 89.5064 55.8004 89.6291C55.8004 89.7642 55.7881 89.8133 55.9231 89.8133C56.5861 89.8133 56.5861 89.7765 57.2491 89.7765C57.9121 89.7765 57.9121 89.801 58.5751 89.801C59.238 89.801 59.2381 90.1693 59.901 90.1693C60.564 90.1693 60.3676 90.2553 61.0183 90.2676L61.227 90.1816C61.3989 90.1816 61.583 89.9361 61.583 89.6537C61.583 89.3713 61.3989 89.1626 61.227 89.1626V89.1994Z" fill="white"/>
<path d="M64.2598 89.7028C64.2598 89.9484 64.2598 90.0466 64.4439 90.0466C65.2665 90.0834 75.334 90.2185 76.1566 90.2553C76.3285 90.2553 76.4758 89.9484 76.4758 89.7028C76.4758 89.4573 76.3285 89.1995 76.1566 89.1995C75.334 89.2363 65.2542 89.3222 64.4439 89.3591C64.272 89.3591 64.2598 89.4573 64.2598 89.7028Z" fill="white"/>
<path d="M63.4984 90.2185C63.6703 90.1939 63.8422 89.9238 63.8176 89.6414C63.8053 89.359 63.5966 89.1749 63.4247 89.2117C62.9214 89.2977 62.9459 89.4941 62.4425 89.58C62.3443 89.5923 62.2584 89.5064 62.2461 89.666C62.2461 89.8501 62.3075 90.1448 62.418 90.1693C62.9214 90.2553 62.8109 90.1202 63.3142 90.2062C63.3388 90.2062 63.4738 90.2185 63.4984 90.2185Z" fill="white"/>
<path d="M51.21 45.3444C51.21 45.3444 51.0013 45.3198 50.989 45.3198C50.2769 45.3321 50.2892 45.3444 49.5771 45.3689C48.865 45.3935 48.865 45.3075 48.1652 45.3198C48.0301 45.3198 47.9688 45.5162 47.9688 45.7004C47.9688 45.8846 48.0301 46.1792 48.1652 46.1792C48.8773 46.2038 48.8773 45.9582 49.5894 45.9828C50.3015 46.0073 50.3015 45.86 51.0013 45.8723C51.1732 45.8723 51.2714 45.8355 51.2714 45.6636C51.2714 45.504 51.3942 45.3444 51.21 45.3321V45.3444Z" fill="white"/>
<path d="M52.4863 45.6636C52.4863 45.9214 52.6459 46.081 52.8424 46.0933C52.8547 46.0933 53.2107 46.0196 53.223 46.0196C53.9351 45.9705 53.579 45.9459 54.2911 45.9091C54.4384 45.9091 54.4876 45.8232 54.4876 45.6636C54.4876 45.5162 54.4384 45.3443 54.3034 45.3321C53.5913 45.2952 53.5913 45.3198 52.8792 45.2584C52.6828 45.2461 52.4986 45.3935 52.4863 45.6513V45.6636Z" fill="white"/>
<path d="M56.2687 45.9583C56.7966 45.9583 56.7966 45.8355 57.3246 45.8355C57.4596 45.8355 57.5087 45.8109 57.5087 45.6882C57.5087 45.5654 57.4596 45.504 57.3246 45.504C56.7966 45.504 56.7966 45.4672 56.2687 45.4672C56.1337 45.4672 55.9863 45.5163 55.9863 45.6882C55.9863 45.86 56.1459 45.946 56.2687 45.946V45.9583Z" fill="white"/>
<path d="M51.0994 51.9374C51.0994 51.9374 51.1486 51.9497 51.2099 51.9742C51.2836 51.9865 51.3941 51.9742 51.5169 51.9742C51.7501 52.011 52.0203 51.9742 52.3395 51.9619C52.6587 51.9619 53.027 51.9619 53.2603 51.9128C53.3217 51.9128 53.3585 51.9006 53.4076 51.8883C53.4567 51.8883 53.5181 51.9128 53.5427 51.9005C53.6163 51.8883 53.6163 51.9006 53.6654 51.876C53.6777 51.876 53.7023 51.8392 53.7023 51.8269C53.7145 51.8023 53.6654 51.7901 53.6286 51.7778C53.5795 51.7655 53.5795 51.7409 53.5181 51.7164C53.4813 51.7164 53.4444 51.6918 53.4076 51.6673C53.3708 51.6304 53.3217 51.6427 53.2603 51.6304C53.027 51.5936 52.6955 51.5445 52.3763 51.5322C52.0571 51.5322 51.7256 51.5568 51.4923 51.5813C51.3695 51.5936 51.2713 51.6182 51.1977 51.6304C51.124 51.6427 51.1608 51.6796 51.0994 51.6918C51.0749 51.6918 50.9889 51.6918 50.9767 51.7287C50.9398 51.7778 51.0135 51.9005 51.0749 51.9251L51.0994 51.9374Z" fill="white"/>
<path d="M48.4967 54.9577C48.8159 54.9577 48.8159 54.884 49.1351 54.884C49.2088 54.884 49.3561 54.8595 49.3561 54.7121C49.3561 54.5648 49.2088 54.3929 49.1351 54.3929C48.8159 54.3929 48.8159 54.3315 48.4967 54.3315C48.423 54.3315 48.3125 54.5648 48.3125 54.7121C48.3125 54.8595 48.4107 54.97 48.4967 54.97V54.9577Z" fill="white"/>
<path d="M49.8477 54.8962C50.0318 54.8962 50.0318 54.8348 50.216 54.8348C50.2897 54.8348 50.437 54.8103 50.437 54.6998C50.437 54.5893 50.2897 54.4419 50.216 54.4419C50.0318 54.4419 50.0318 54.3928 49.8477 54.3928C49.774 54.3928 49.6758 54.577 49.6758 54.6998C49.6758 54.8225 49.774 54.8962 49.8477 54.8962Z" fill="white"/>
<path d="M56.5385 48.7576L56.4158 48.8067C56.3053 48.8067 56.207 48.9417 56.207 49.0891C56.207 49.2364 56.3175 49.3469 56.428 49.3469C56.8209 49.3469 56.8209 49.2364 57.2261 49.2241C57.6189 49.2241 57.6312 49.3223 58.0241 49.3223C58.417 49.3223 58.4293 49.396 58.8221 49.3837C59.215 49.3837 59.215 49.2855 59.6202 49.2732C59.7061 49.2732 59.6938 49.1996 59.6938 49.0768C59.6938 48.954 59.6938 48.8926 59.6202 48.8926C59.2273 48.8926 59.2273 48.9295 58.8221 48.9172C58.4293 48.9172 58.4293 48.8926 58.0241 48.8926C57.6189 48.8926 57.6312 48.8067 57.2261 48.8067C56.8332 48.8067 56.9437 48.7576 56.5508 48.7576H56.5385Z" fill="white"/>
<path d="M60.2344 49.0767C60.2344 49.1995 60.3203 49.3345 60.4308 49.3345C60.9219 49.31 60.9219 49.2732 61.4253 49.2486C61.5358 49.2486 61.5358 49.1995 61.5358 49.0644C61.5358 48.9294 61.5358 48.8803 61.4253 48.8803C60.9342 48.8557 60.9342 48.7943 60.4431 48.7698C60.3326 48.7698 60.2467 48.9294 60.2467 49.0644L60.2344 49.0767Z" fill="white"/>
<path d="M62.0873 48.8066C62.0873 48.8066 61.9891 48.8066 61.9768 48.8066C61.8663 48.8189 61.7681 48.9662 61.7803 49.1136C61.7803 49.2609 61.9154 49.3591 62.0136 49.3468C62.3083 49.2977 62.3083 49.1995 62.6029 49.1504C62.6643 49.1504 62.7134 49.1872 62.7257 49.1013C62.7257 49.0031 62.6889 48.8435 62.6275 48.8312C62.3328 48.7821 62.3942 48.8558 62.0873 48.8066Z" fill="white"/>
<path d="M42.8617 70.3045C42.7881 70.3167 42.8249 70.3536 42.7635 70.3659C42.739 70.3659 42.653 70.3659 42.6407 70.4027C42.6039 70.4518 42.6776 70.5746 42.739 70.5991C42.7881 70.6114 42.7881 70.6114 42.8494 70.636C42.9231 70.6482 43.0336 70.636 43.1564 70.636C43.3897 70.6728 43.6598 70.636 43.979 70.6237C44.2982 70.6237 44.6665 70.6237 44.8998 70.5746C44.9612 70.5746 44.998 70.5623 45.0471 70.55C45.0962 70.55 45.1576 70.5746 45.1822 70.5623C45.2558 70.55 45.2558 70.5623 45.3049 70.5377C45.3172 70.5377 45.3418 70.5009 45.3418 70.4886C45.3541 70.4641 45.3049 70.4518 45.2681 70.4395C45.219 70.4272 45.219 70.4027 45.1576 70.3781C45.1208 70.3781 45.0839 70.3536 45.0471 70.329C45.0103 70.2922 44.9612 70.3045 44.8998 70.2922C44.6665 70.2554 44.335 70.2062 44.0158 70.194C43.6966 70.194 43.3651 70.2185 43.1318 70.2431C43.0091 70.2554 42.9108 70.2799 42.8372 70.2922L42.8617 70.3045Z" fill="white"/>
<path d="M61.363 83.0607C61.2157 83.073 61.2771 83.1098 61.1666 83.1221C61.1052 83.1221 60.9333 83.1221 60.9088 83.1589C60.8474 83.208 60.9701 83.3308 61.1175 83.3553C61.228 83.3676 61.2034 83.3676 61.3507 83.3922C61.4981 83.4045 61.7436 83.3922 61.9769 83.3922C62.468 83.429 63.0205 83.3922 63.6712 83.3799C64.3219 83.3799 65.0708 83.3799 65.5619 83.3308C65.6847 83.3308 65.7706 83.3185 65.8688 83.3062C65.9671 83.3062 66.0898 83.3308 66.1635 83.3185C66.3108 83.3062 66.3108 83.3185 66.4213 83.294C66.4582 83.294 66.4827 83.2571 66.5073 83.2449C66.5441 83.2203 66.4213 83.208 66.3477 83.1957C66.2372 83.1835 66.2617 83.1589 66.1144 83.1343C66.0407 83.1343 65.9671 83.1098 65.8934 83.0852C65.8075 83.0484 65.7092 83.0607 65.5865 83.0484C65.0954 83.0116 64.4324 82.9625 63.7817 82.9502C63.131 82.9502 62.4557 82.9747 61.9646 82.9993C61.7191 83.0116 61.5104 83.0361 61.363 83.0484V83.0607Z" fill="white"/>
<path d="M43.782 73.3615C43.782 73.251 43.7452 73.2387 43.6838 73.2387C43.4628 73.2264 43.3891 73.1773 43.3032 73.1282C43.2541 73.0545 43.1927 73.0054 43.1558 73.0054C42.6647 72.9932 42.6647 72.9318 42.1614 72.9072C41.6703 72.8949 41.6703 72.9318 41.1669 72.9195L41.0932 72.9563C40.9827 72.9563 41.0196 73.1528 41.0196 73.3369C41.0196 73.5334 41.0564 73.8035 41.1669 73.7912C41.658 73.7789 41.658 73.693 42.1614 73.6807C42.3455 73.6807 42.4437 73.6561 42.542 73.6316C42.9348 73.607 43.2786 73.6316 43.6838 73.5947C43.7452 73.5947 43.782 73.4351 43.782 73.3246V73.3615Z" fill="white"/>
<path d="M40.2939 73.0178C39.7905 73.0055 39.7905 72.9441 39.2749 72.9195C38.7715 72.9073 38.7715 72.9441 38.2559 72.9318H38.1699C38.0594 72.9318 38.1085 73.1774 38.1085 73.3738C38.1085 73.5702 38.1454 73.8403 38.2559 73.8281C38.7592 73.8158 38.7592 73.7298 39.2749 73.7176C39.7783 73.7053 39.7783 73.5948 40.2939 73.5825C40.3799 73.5825 40.5272 73.5334 40.5272 73.3738C40.5272 73.2142 40.3799 73.03 40.2939 73.03V73.0178Z" fill="white"/>
<path d="M45.0824 73.0423C44.7631 73.0423 44.7631 72.981 44.4439 72.981C44.3703 72.981 44.2598 73.2142 44.2598 73.3616C44.2598 73.5089 44.358 73.6194 44.4439 73.6194C44.7631 73.6194 44.7631 73.5457 45.0824 73.5457C45.156 73.5457 45.3033 73.5212 45.3033 73.3738C45.3033 73.2265 45.156 73.0546 45.0824 73.0546V73.0423Z" fill="white"/>
<path d="M46.1633 73.4843C46.2369 73.4843 46.3842 73.4598 46.3842 73.3493C46.3842 73.2388 46.2369 73.0915 46.1633 73.0915C45.9791 73.0915 45.9791 73.0424 45.7949 73.0424C45.7213 73.0424 45.623 73.2265 45.623 73.3493C45.623 73.4721 45.7213 73.5457 45.7949 73.5457C45.9791 73.5457 45.9791 73.4843 46.1633 73.4843Z" fill="white"/>
<path d="M37.0287 72.9073C37.0287 72.9073 36.9305 72.895 36.9182 72.9073C36.8077 72.9319 36.7095 73.1651 36.7217 73.3984C36.7217 73.6317 36.8568 73.7913 36.955 73.7667C37.2497 73.6931 37.2497 73.5212 37.5443 73.4598C37.6057 73.4475 37.6548 73.5212 37.6671 73.3861C37.6671 73.2265 37.6303 72.981 37.5689 72.9564C37.2742 72.8828 37.3356 72.9933 37.0287 72.9196V72.9073Z" fill="white"/>
<path d="M42.787 67.7384C42.787 67.6156 42.787 67.5542 42.7134 67.5542C42.3205 67.5542 42.3205 67.5911 41.9153 67.5788C41.5224 67.5788 41.5224 67.5542 41.1173 67.5542C40.7244 67.5542 40.7244 67.4683 40.3193 67.4683C39.9264 67.4683 40.0369 67.4192 39.644 67.4192L39.5212 67.4683C39.4107 67.4683 39.3125 67.6033 39.3125 67.7507C39.3125 67.898 39.423 68.0085 39.5335 68.0085C39.9264 68.0085 39.9264 67.898 40.3315 67.8857C40.7244 67.8857 40.7367 67.984 41.1296 67.984C41.5224 67.984 41.5347 68.0576 41.9276 68.0453C42.3205 68.0453 42.3205 67.9471 42.7256 67.9348C42.8116 67.9348 42.7993 67.8612 42.7993 67.7384H42.787Z" fill="white"/>
<path d="M44.5185 67.9103C44.629 67.9103 44.629 67.8612 44.629 67.7262C44.629 67.5911 44.629 67.542 44.5185 67.542C44.0274 67.5175 44.0274 67.4561 43.5363 67.4315C43.4258 67.4315 43.3398 67.5911 43.3398 67.7262C43.3398 67.8612 43.4258 67.984 43.5363 67.984C44.0274 67.9595 44.0274 67.9226 44.5308 67.8981L44.5185 67.9103Z" fill="white"/>
<path d="M45.1191 67.9963C45.4137 67.9472 45.4137 67.8489 45.7084 67.7998C45.7698 67.7998 45.8189 67.8367 45.8312 67.7507C45.8312 67.6525 45.7943 67.4929 45.733 67.4806C45.4383 67.4315 45.4997 67.5052 45.1927 67.4561C45.1805 67.4561 45.0945 67.4561 45.0822 67.4561C44.9717 67.4683 44.8735 67.6157 44.8858 67.763C44.8858 67.9103 45.0209 68.0085 45.1191 67.9963Z" fill="white"/>
<path d="M45.0715 57.72H45.1451C46.201 57.72 46.201 57.585 47.2691 57.5727C47.4901 57.5727 47.6743 57.5113 47.6743 57.3272C47.6743 57.1553 47.4901 56.8975 47.2814 56.8975C46.2255 56.8975 46.2133 57.0325 45.1574 57.0202C44.9241 57.0202 44.6172 57.1307 44.6172 57.3149C44.6172 57.4991 44.8505 57.7078 45.0837 57.7078L45.0715 57.72Z" fill="white"/>
<path d="M48.7422 57.3149C48.7422 57.4253 48.9263 57.5481 49.1105 57.5481C49.8594 57.5481 49.8594 57.4622 50.6206 57.4745C50.8294 57.4745 51.0012 57.4376 51.0012 57.3271C51.0012 57.2166 50.8416 57.0325 50.6329 57.0325H50.3874C49.6384 57.0325 49.8717 57.0447 49.1228 57.057C48.9263 57.057 48.7545 57.2166 48.7545 57.3271L48.7422 57.3149Z" fill="white"/>
<path d="M42.7744 64.5832C42.7744 64.6814 42.713 64.8042 42.8603 64.8042H42.9831C43.7566 64.8042 43.7566 64.8165 44.5178 64.8042C45.2913 64.8042 45.2913 64.7674 46.0525 64.7551C46.1753 64.7551 46.3963 64.6569 46.3963 64.5832C46.3963 64.5095 46.1753 64.485 46.0525 64.4727C45.279 64.4727 45.2913 64.4113 44.5178 64.399C43.7443 64.399 43.7566 64.3499 42.9831 64.3376C42.8235 64.3376 42.7621 64.4727 42.7621 64.5709L42.7744 64.5832Z" fill="white"/>
<path d="M52.7434 57.0202C52.7312 57.1184 52.3628 57.2412 53.2591 57.2412C53.2714 57.2412 53.9712 57.2412 53.9957 57.2412C58.3788 57.2412 58.3788 57.2535 62.7618 57.2412C67.1449 57.2412 67.1449 57.2044 71.5157 57.1921C72.2523 57.1921 73.5046 57.0939 73.4923 57.0202C73.4801 56.9465 72.2155 56.922 71.5034 56.9097C67.1203 56.9097 67.1326 56.8483 62.7496 56.836C58.3665 56.836 58.3788 56.7869 53.9957 56.7747C53.0995 56.7747 52.7557 56.9097 52.7434 57.0079V57.0202Z" fill="white"/>
<path d="M38.2077 64.3253C37.5692 64.3007 37.5692 64.2516 36.9185 64.2271C36.7958 64.2271 36.6484 64.448 36.6484 64.5831C36.6484 64.7304 36.7712 64.9883 36.894 65.0005H36.9922C37.6306 64.976 37.5447 64.7427 38.1954 64.7182C38.2936 64.7182 38.355 64.7181 38.3427 64.5954C38.3427 64.4849 38.2813 64.3375 38.1954 64.3375L38.2077 64.3253Z" fill="white"/>
<path d="M40.3201 64.9023C40.4429 64.9023 40.6516 64.7305 40.6516 64.5954C40.6516 64.4603 40.4306 64.4235 40.3201 64.4235C39.8413 64.4235 39.8413 64.3499 39.3502 64.3499C39.2274 64.3499 39.0801 64.4481 39.0801 64.5954C39.0801 64.7427 39.2274 64.9637 39.3502 64.9637C39.829 64.9637 39.829 64.9023 40.3201 64.9023Z" fill="white"/>
<path d="M41.399 64.9637C41.6814 64.9637 41.6814 64.9023 41.9638 64.9023C42.0865 64.9023 42.2953 64.7305 42.2953 64.5954C42.2953 64.4603 42.0865 64.4235 41.9638 64.4235C41.6814 64.4235 41.6814 64.3499 41.399 64.3499C41.2762 64.3499 41.1289 64.4481 41.1289 64.5954C41.1289 64.7427 41.2762 64.9637 41.399 64.9637Z" fill="white"/>
<path d="M43.7944 61.391L43.9908 61.477C44.617 61.477 44.4205 61.391 45.0467 61.3787C45.6728 61.3787 45.6728 61.0104 46.299 61.0104C46.9251 61.0104 46.9251 60.9859 47.5513 60.9859C48.1774 60.9859 48.1774 61.0227 48.8036 61.0227C48.9386 61.0227 48.9264 60.9613 48.9264 60.8385C48.9264 60.7158 48.9386 60.6298 48.8036 60.6298C48.1774 60.6298 48.1774 60.5316 47.5513 60.5193C46.9251 60.5193 46.9251 60.593 46.299 60.593C45.6728 60.593 45.6728 60.6421 45.0467 60.6298C44.4205 60.6298 44.4205 60.4211 43.8067 60.4088C43.6471 60.4088 43.4629 60.6175 43.4629 60.8999C43.4629 61.1823 43.6348 61.4278 43.7944 61.4278V61.391Z" fill="white"/>
<path d="M39.2269 61.4278C40.0003 61.391 40.0003 61.2559 40.7738 61.2191C40.9334 61.2191 40.9457 61.1209 40.9457 60.8753C40.9457 60.6298 40.9457 60.5316 40.7738 60.5316C40.0003 60.4947 40.0003 60.4088 39.2269 60.3719C39.0673 60.3719 38.9199 60.6298 38.9199 60.863C38.9199 61.0963 39.0673 61.4155 39.2269 61.4155V61.4278Z" fill="white"/>
<path d="M41.6578 61.391C41.6578 61.391 41.8051 61.391 41.8297 61.3788C42.2962 61.2928 42.198 61.4279 42.6645 61.3419C42.775 61.3174 42.8364 61.0227 42.8241 60.8386C42.8241 60.6789 42.7382 60.7649 42.64 60.7526C42.1734 60.6667 42.1857 60.4702 41.7069 60.3843C41.5473 60.3597 41.3508 60.5316 41.3386 60.814C41.3263 61.0964 41.4859 61.3665 41.6455 61.391H41.6578Z" fill="white"/>
<path d="M46.2736 75.4979C45.2177 75.4979 45.2054 75.6329 44.1496 75.6206C43.9163 75.6206 43.6094 75.7311 43.6094 75.9153C43.6094 76.0995 43.8426 76.3082 44.0759 76.3082H44.1496C45.2054 76.3082 45.2054 76.1731 46.2736 76.1609C46.4946 76.1609 46.6787 76.0995 46.6787 75.9153C46.6787 75.7434 46.4946 75.4856 46.2859 75.4856L46.2736 75.4979Z" fill="white"/>
<path d="M49.6382 75.6083H49.3927C48.6437 75.6083 48.877 75.6206 48.1281 75.6328C47.9317 75.6328 47.7598 75.7924 47.7598 75.9029C47.7598 76.0134 47.9439 76.1362 48.1281 76.1362C48.877 76.1362 48.877 76.0503 49.6382 76.0625C49.8469 76.0625 50.0188 76.0257 50.0188 75.9152C50.0188 75.7924 49.8592 75.6206 49.6505 75.6206L49.6382 75.6083Z" fill="white"/>
<path d="M47.329 83.4045H47.771C50.4475 83.4045 50.4475 83.4168 53.124 83.4045C55.8005 83.4045 55.8005 83.3677 58.477 83.3554C58.919 83.3554 59.6924 83.2572 59.6802 83.1835C59.6802 83.1099 58.8944 83.0853 58.4647 83.073C55.7882 83.073 55.7882 83.0116 53.124 82.9994C50.4475 82.9994 50.4475 82.9503 47.771 82.938C47.2185 82.938 47.0221 83.073 47.0098 83.1713C47.0098 83.2695 46.7766 83.3923 47.329 83.3923V83.4045Z" fill="white"/>
<path d="M44.8489 83.1835C44.8489 83.0362 44.6279 83.0117 44.5174 83.0117C44.0385 83.0117 44.0385 82.938 43.5474 82.938C43.4247 82.938 43.2773 83.0362 43.2773 83.1835C43.2773 83.3309 43.4247 83.5519 43.5474 83.5519C44.0263 83.5519 44.0263 83.4905 44.5174 83.4905C44.6401 83.4905 44.8489 83.3186 44.8489 83.1835Z" fill="white"/>
<path d="M45.5982 82.938C45.4755 82.938 45.3281 83.0362 45.3281 83.1835C45.3281 83.3309 45.4755 83.5519 45.5982 83.5519C45.8806 83.5519 45.8806 83.4905 46.163 83.4905C46.2858 83.4905 46.4945 83.3186 46.4945 83.1835C46.4945 83.0485 46.2858 83.0117 46.163 83.0117C45.8806 83.0117 45.8806 82.938 45.5982 82.938Z" fill="white"/>
<path d="M52.6219 79.5985C52.757 79.5985 52.7447 79.5371 52.7447 79.4143C52.7447 79.2916 52.757 79.2056 52.6219 79.2056C51.9958 79.2056 51.9958 79.1074 51.3696 79.0951C50.7435 79.0951 50.7435 79.1688 50.1173 79.1688C49.4912 79.1688 49.4912 79.2179 48.865 79.2056C48.2389 79.2056 48.2389 78.9969 47.625 78.9846C47.4654 78.9846 47.2812 79.1933 47.2812 79.4757C47.2812 79.7581 47.4531 80.0037 47.6127 80.0037L47.8092 80.0896C48.4353 80.0896 48.2389 80.0036 48.865 79.9914C49.4912 79.9914 49.4912 79.623 50.1173 79.623C50.7435 79.623 50.7435 79.5985 51.3696 79.5985C51.9958 79.5985 51.9958 79.6353 52.6219 79.6353V79.5985Z" fill="white"/>
<path d="M44.7758 79.4635C44.7758 79.2179 44.7758 79.1197 44.6039 79.1197C43.8304 79.0829 43.8304 78.9969 43.0569 78.9601C42.8973 78.9601 42.75 79.2179 42.75 79.4512C42.75 79.6845 42.8973 80.0037 43.0569 80.0037C43.8304 79.9668 43.8304 79.8318 44.6039 79.795C44.7635 79.795 44.7758 79.6967 44.7758 79.4512V79.4635Z" fill="white"/>
<path d="M46.6536 79.4266C46.6536 79.267 46.5677 79.3529 46.4695 79.3406C46.0029 79.2547 46.0152 79.0582 45.5487 78.9723C45.3891 78.9477 45.1926 79.1196 45.1804 79.402C45.1681 79.6844 45.3277 79.9545 45.4873 79.979C45.5118 79.979 45.6346 79.979 45.6592 79.9668C46.1257 79.8808 46.0275 80.0159 46.494 79.9299C46.6045 79.9054 46.6659 79.6107 46.6536 79.4266Z" fill="white"/>
<path d="M55.1267 86.3879C55.36 86.3879 55.5564 86.3265 55.5441 86.1424C55.5441 85.9705 55.3477 85.7126 55.1267 85.7126C53.9972 85.7126 46.3851 85.8477 45.2679 85.8354C45.0223 85.8354 44.7031 85.9459 44.7031 86.1301C44.7031 86.3142 44.9487 86.523 45.1942 86.523H45.2679C46.3974 86.523 53.9972 86.3879 55.1267 86.3756V86.3879Z" fill="white"/>
<path d="M58.4401 85.86C57.6421 85.86 57.8876 85.8723 57.1019 85.8845C56.8931 85.8845 56.709 86.0442 56.709 86.1547C56.709 86.2651 56.9054 86.3879 57.1019 86.3879C57.8999 86.3879 57.8999 86.302 58.6979 86.3143C58.9189 86.3143 59.1031 86.2774 59.1031 86.1669C59.1031 86.0441 58.9312 85.8723 58.7102 85.8723H58.4524L58.4401 85.86Z" fill="white"/>
<path d="M55.5812 93.3001C54.7709 93.3001 54.7709 93.2387 53.9483 93.2264C53.138 93.2264 53.138 93.1773 52.3154 93.165C52.1435 93.165 52.0821 93.3001 52.0821 93.3983C52.0821 93.4965 52.0084 93.6193 52.1803 93.6193H52.3154C53.1257 93.6193 53.1257 93.6316 53.9483 93.6193C54.7586 93.6193 54.7586 93.5825 55.5812 93.5702C55.7162 93.5702 55.9495 93.472 55.9495 93.3983C55.9495 93.3246 55.7162 93.3001 55.5812 93.2878V93.3001Z" fill="white"/>
<path d="M51.2219 93.2387C50.9272 93.2387 50.9272 93.165 50.6203 93.165C50.4975 93.165 50.3379 93.2633 50.3379 93.4106C50.3379 93.5579 50.4975 93.7789 50.6203 93.7789C50.9149 93.7789 50.9149 93.7175 51.2219 93.7175C51.3446 93.7175 51.5779 93.5456 51.5779 93.4106C51.5779 93.2755 51.3446 93.2387 51.2219 93.2387Z" fill="white"/>
<path d="M53.1501 89.8257C53.2975 89.8257 53.2729 89.7643 53.2729 89.6415C53.2729 89.5187 53.2852 89.4328 53.1501 89.4328C52.4872 89.4328 52.4872 89.3223 51.8242 89.3223C51.1612 89.3223 51.1612 89.396 50.4982 89.396C49.8352 89.396 49.8352 89.4451 49.1722 89.4328C48.5093 89.4328 48.5093 89.2241 47.8463 89.2118C47.6744 89.2118 47.4902 89.4205 47.4902 89.7029C47.4902 89.9853 47.6744 90.2308 47.8463 90.2308L48.055 90.3168C48.718 90.3168 48.5215 90.2308 49.1722 90.2185C49.8352 90.2185 49.8352 89.8502 50.4982 89.8502C51.1612 89.8502 51.1612 89.8257 51.8242 89.8257C52.4872 89.8257 52.4872 89.8625 53.1501 89.8625V89.8257Z" fill="white"/>
<path d="M46.6296 89.5678C46.1263 89.4818 46.1508 89.2854 45.6474 89.1995C45.4756 89.1749 45.2791 89.3591 45.2546 89.6292C45.2423 89.9115 45.4019 90.1817 45.5738 90.2062C45.5983 90.2062 45.7334 90.2062 45.7579 90.1939C46.2613 90.108 46.1508 90.243 46.6542 90.1571C46.7647 90.1325 46.8384 89.8379 46.8261 89.6537C46.8261 89.4941 46.7279 89.5801 46.6296 89.5678Z" fill="white"/>
<path d="M106.544 28.8558C98.1339 17.5605 86.3721 9.60471 73.4194 6.43713C72.9774 6.32663 72.5354 6.59674 72.4372 7.03873C72.3267 7.48071 72.5968 7.9227 73.0388 8.02092C85.6232 11.0903 97.0535 18.8374 105.243 29.8257C113.554 40.9859 118.134 55.0559 118.134 69.4205C118.134 104.129 92.2162 132.355 60.3685 132.355C28.5208 132.355 2.61532 104.129 2.61532 69.4205C2.61532 40.1265 21.6577 14.2824 47.9069 7.97181C48.3489 7.86132 48.619 7.4316 48.5085 6.98962C48.398 6.54763 47.9682 6.27752 47.5263 6.38802C20.5527 12.8705 0.982422 39.3898 0.982422 69.4205C0.982422 105.025 27.6245 133.988 60.3808 133.988C93.137 133.988 119.779 105.025 119.779 69.4205C119.779 54.6998 115.089 40.2861 106.556 28.8435L106.544 28.8558Z" fill="white"/>
<path d="M22.6029 34.7858C28.0296 27.5053 35.0891 21.9067 43.0326 18.6041C43.45 18.4322 43.6465 17.9534 43.4746 17.536C43.3027 17.1185 42.8239 16.9221 42.4065 17.094C34.1928 20.5071 26.9 26.2898 21.2892 33.8159C21.0191 34.1719 21.0928 34.6876 21.4611 34.9577C21.6084 35.0682 21.7803 35.1173 21.9522 35.1173C22.1978 35.1173 22.4433 35.0068 22.6029 34.7858Z" fill="white"/>
<path d="M91.4791 112.355C82.7867 120.36 71.7861 124.767 60.4908 124.767C57.9003 124.767 55.2852 124.534 52.7438 124.08C52.3018 123.994 51.8721 124.301 51.7984 124.743C51.7247 125.185 52.0194 125.614 52.4614 125.688C55.101 126.155 57.8021 126.4 60.4908 126.4C72.1912 126.4 83.5847 121.845 92.5841 113.558C92.9156 113.251 92.9401 112.735 92.6332 112.404C92.3263 112.072 91.8106 112.048 91.4791 112.355Z" fill="white"/>
<path d="M46.3838 15.105C46.7153 16.9712 47.587 18.6041 48.6183 20.151C48.7288 20.3106 48.827 20.4825 48.9375 20.6667C48.7902 20.7281 48.7042 20.7526 48.6183 20.7895C48.4464 20.8508 48.3236 20.9368 48.2254 21.0227C47.7589 21.1701 47.28 21.3297 46.8258 21.4893L46.0523 21.7717C45.1315 22.14 44.2966 22.5083 43.5231 22.9012L42.8479 23.245C41.9639 23.7238 41.129 24.2271 40.3924 24.7428L39.8031 25.148V25.1725C38.9928 25.7864 38.2315 26.4371 37.5686 27.1124L37.1389 27.5421V27.5666C36.7828 27.9718 36.4268 28.3892 36.083 28.8435C35.5796 29.5065 35.42 30.3536 35.5919 31.1394C24.8614 40.0405 18.4648 54.2087 18.4648 69.1995C18.4648 84.1902 24.9719 98.6654 35.862 107.53C36.8933 108.377 37.8387 109.077 38.7349 109.678C39.8522 110.427 40.8589 111.041 41.792 111.557C42.8847 112.171 44.002 112.723 45.0946 113.202C46.2365 113.705 47.4396 114.172 48.6797 114.577C49.9811 115.007 51.307 115.363 52.7435 115.67C55.2113 116.173 57.7282 116.431 60.2205 116.443H60.3555C61.8534 116.443 63.3635 116.345 64.8491 116.173C64.9841 116.32 65.1192 116.48 65.2297 116.64C65.3893 116.861 65.5121 117.082 65.6226 117.315C65.9541 118.051 66.7275 118.518 67.5378 118.518C67.6852 118.518 67.8202 118.506 67.9675 118.469C68.7779 118.297 69.5882 118.113 70.3494 117.916L71.172 117.695C72.0559 117.425 72.9276 117.167 73.7748 116.861L74.5605 116.578C75.4936 116.198 76.3285 115.829 77.0897 115.449L77.765 115.105C78.6489 114.626 79.4838 114.123 80.2205 113.607L80.8098 113.202V113.177C81.6324 112.551 82.3813 111.9 83.0443 111.237L83.474 110.808V110.783C83.8177 110.39 84.1738 109.985 84.5298 109.506C84.9841 108.905 85.156 108.144 85.0332 107.382C95.8374 98.5058 102.283 84.2639 102.283 69.1872C102.283 43.1344 83.4863 21.9435 60.3801 21.9435C58.8454 21.9435 57.3107 22.0418 55.7883 22.2259C55.641 22.0663 55.4937 21.8944 55.3709 21.7103C55.2604 21.5507 55.1744 21.3788 55.0762 21.2069C59.7908 20.6176 64.5176 20.7649 69.269 21.8085C70.0424 21.9804 70.8282 22.1523 71.6017 22.3119C72.1787 22.4346 72.5716 22.2136 72.6944 21.7103C72.8049 21.2806 72.6207 20.9859 72.0805 20.7649C71.9946 20.7281 71.9086 20.6912 71.7367 20.6299C71.9086 20.372 72.0559 20.151 72.191 19.9423C73.2714 18.2971 74.1308 16.566 74.4009 14.5893C74.7201 12.2321 73.3451 10.0099 71.0492 9.40826C70.2266 9.18726 69.3426 9.17499 68.4709 9.10132C68.1517 9.07677 67.9062 9.01538 67.6852 8.74528C67.0222 7.94724 66.1505 7.54209 65.1315 7.39476C63.6213 7.17376 62.1849 7.52981 60.7975 8.08229C60.466 8.21735 60.2082 8.19279 59.8644 8.08229C58.8822 7.78763 57.8755 7.49298 56.8687 7.35792C55.7269 7.19832 54.5115 7.33337 53.6766 8.15596C52.854 8.96627 51.9823 9.08904 50.9264 9.15043C47.6361 9.35915 45.7822 11.8146 46.3469 15.0682L46.3838 15.105ZM68.8638 12.3671C70.1407 12.318 71.086 13.1038 71.0737 14.3315C71.0737 15.0436 70.9387 15.7925 70.6686 16.4432C70.2143 17.5359 69.6127 18.5795 69.0725 19.6354C68.9129 19.9423 68.6919 20.0774 68.3359 20.0037C67.8202 19.8932 67.2923 19.8073 66.7398 19.709C67.7957 17.3027 68.827 14.9699 68.8761 12.3548L68.8638 12.3671ZM62.3936 10.5992C62.8356 10.501 63.2776 10.3536 63.7196 10.3291C64.3703 10.2922 64.8859 10.6114 65.021 11.2867C65.1683 12.0111 65.2297 12.7846 65.1437 13.5089C64.9227 15.5224 64.2598 17.4254 63.4986 19.3776C63.0811 19.353 62.676 19.3284 62.1603 19.3039C62.234 16.3819 62.3076 13.5458 62.3813 10.5992H62.3936ZM52.9277 26.2898C54.9657 27.8736 57.6054 28.7453 60.3801 28.7453C62.9829 28.7453 65.4752 27.9718 67.4519 26.5844C68.0658 26.7195 68.6674 26.8545 69.269 27.0264C66.8871 28.9171 63.7318 29.9853 60.3801 29.9853C56.439 29.9853 52.7803 28.5243 50.3371 25.9828C49.6128 25.2339 49.0112 24.399 48.5569 23.5273C48.4464 23.3063 48.3359 23.0608 48.2377 22.8275C48.4218 22.7661 48.5937 22.7047 48.7779 22.6434C48.9252 22.5942 49.0603 22.5574 49.2076 22.5083C49.4409 22.4346 49.6864 22.3733 49.932 22.2996C50.067 22.6434 50.2143 22.9871 50.3985 23.3186C51.0124 24.4481 51.8595 25.4426 52.9399 26.2775L52.9277 26.2898ZM51.5771 21.8699C52.0314 21.7594 52.5102 21.6489 52.9768 21.5507C53.1609 21.5138 53.3574 21.5998 53.4188 21.7471C53.5661 22.0786 53.7503 22.3978 53.9712 22.7047C55.2972 24.5955 57.6299 25.7496 60.2327 25.7987H60.3678C61.8534 25.7987 63.3512 25.9092 64.8368 26.1179C63.4863 26.7195 61.9516 27.0387 60.3678 27.0387C57.9737 27.0387 55.7024 26.2898 53.9712 24.9392C53.0873 24.2394 52.3752 23.4291 51.8841 22.5083C51.7736 22.2996 51.6631 22.0786 51.5771 21.8699ZM80.4414 111.299C80.3801 111.348 80.3064 111.409 80.245 111.458C80.1836 111.508 80.11 111.557 80.0486 111.606C79.9749 111.458 79.9012 111.323 79.8153 111.164C79.2996 110.231 78.6612 109.322 77.9368 108.463C73.8853 103.638 67.2677 100.753 60.245 100.753C53.2223 100.753 47.2064 103.392 43.118 107.824C42.676 107.567 42.2217 107.296 41.7552 106.989C46.1873 102.299 53.0136 99.5248 60.245 99.5248C67.8939 99.5248 75.0885 102.631 79.4838 107.824C80.1836 108.659 80.7484 109.445 81.2395 110.268C81.2886 110.341 81.3377 110.415 81.3745 110.489C81.3623 110.501 81.35 110.513 81.3254 110.538C81.043 110.795 80.7484 111.053 80.4414 111.299ZM77.6299 113.214C77.5562 113.263 77.4703 113.3 77.3844 113.349C77.2984 113.398 77.2125 113.435 77.1265 113.484C77.016 113.239 76.8933 112.993 76.7582 112.735C76.2548 111.778 75.6164 110.845 74.8552 109.948C71.4543 106.032 65.9909 103.699 60.2327 103.699C54.4746 103.699 49.5391 105.823 46.126 109.396C45.6349 109.175 45.1438 108.929 44.6527 108.671C48.4218 104.767 54.1677 102.471 60.2327 102.471C66.7644 102.471 72.8908 105.123 76.6232 109.568C77.2861 110.354 77.8509 111.176 78.3174 111.999C78.4279 112.207 78.5384 112.404 78.6367 112.613C78.6367 112.613 78.6244 112.613 78.6121 112.625C78.3052 112.821 77.9737 113.018 77.6299 113.214ZM74.5851 114.7C74.4992 114.737 74.4009 114.773 74.315 114.81C74.2045 114.847 74.094 114.896 73.9835 114.933C73.8607 114.626 73.7257 114.319 73.5783 114.024C73.0504 113.005 72.3506 112.036 71.5035 111.164C68.741 108.291 64.6281 106.646 60.2327 106.646C56.083 106.646 52.2033 108.131 49.4409 110.71C48.8884 110.525 48.3482 110.317 47.8202 110.108C50.9142 107.149 55.4568 105.406 60.2327 105.406C65.4998 105.406 70.4844 107.517 73.5661 111.066C74.2413 111.851 74.8061 112.674 75.2481 113.521C75.3831 113.779 75.5059 114.012 75.6041 114.245C75.2849 114.393 74.9411 114.54 74.5851 114.687V114.7ZM71.4052 115.829C71.172 115.903 70.9264 115.964 70.6931 116.038C70.5581 115.694 70.4108 115.35 70.2266 115.019C69.6127 113.889 68.7656 112.895 67.6852 112.06C65.6471 110.476 63.0075 109.605 60.2327 109.605C57.6422 109.605 55.1622 110.378 53.1855 111.778C52.5471 111.643 51.9455 111.483 51.3561 111.323C53.738 109.433 56.8933 108.365 60.245 108.365C64.1861 108.365 67.8448 109.826 70.288 112.367C71.0124 113.116 71.614 113.951 72.0682 114.823C72.1787 115.056 72.2892 115.289 72.3874 115.522C72.2033 115.584 72.0314 115.645 71.8472 115.706C71.6999 115.756 71.5526 115.805 71.4052 115.842V115.829ZM80.7852 106.719C76.0707 101.145 68.385 97.8182 60.2327 97.8182C52.0805 97.8182 45.0578 100.875 40.3187 106.032C39.9013 105.737 39.4839 105.43 39.0541 105.086C39.6066 104.509 40.1837 103.945 40.8098 103.417C41.6201 102.717 42.5287 102.029 43.5231 101.379C44.4808 100.753 45.4998 100.175 46.6293 99.623C47.7711 99.0705 49.0112 98.5671 50.288 98.1497C56.6477 96.0503 63.9283 96.0625 70.3739 98.1988C71.6262 98.6163 72.8785 99.1319 74.0817 99.7335C75.1621 100.261 76.1934 100.863 77.1756 101.514C78.1333 102.152 79.0418 102.84 79.8644 103.564C80.687 104.288 81.4728 105.062 82.1726 105.872C82.4181 106.155 82.7864 106.621 83.167 107.125C83.253 107.247 83.3266 107.382 83.3635 107.53C83.4494 107.873 83.388 108.217 83.1916 108.475C82.9952 108.733 82.7987 108.966 82.6146 109.199C82.1235 108.377 81.5341 107.567 80.822 106.707L80.7852 106.719ZM37.8264 34.3069C40.4047 37.0448 43.6336 39.2548 47.2678 40.814C47.3046 40.8508 47.3169 40.8999 47.3537 40.9245C47.6729 41.1946 47.8325 41.4893 47.8571 41.8699C47.9062 42.6188 47.3905 43.4536 47.1327 43.736C47.0468 43.822 46.9485 43.8834 46.8135 43.8711C45.1438 43.7851 42.7128 43.6746 40.552 43.5519C40.7239 43.3186 40.8712 43.073 40.994 42.7907C41.7675 41.0227 41.3377 38.8864 39.9013 37.3395C38.8454 36.1977 37.6791 35.5715 36.4881 35.4733C36.9301 35.0681 37.3844 34.6875 37.8387 34.3069H37.8264ZM53.4065 43.2695C53.7257 43.294 53.6766 43.1958 54.0695 43.1958C54.2659 43.1958 54.4869 43.2449 54.7202 43.2449C54.9657 43.2449 55.2113 43.159 55.4691 43.1467C55.5796 43.1467 55.6778 43.1467 55.776 43.1467C57.2862 43.3554 58.8208 43.4659 60.3678 43.4659C61.706 43.4659 63.032 43.38 64.3457 43.2204C64.3825 43.2204 64.4071 43.2204 64.4439 43.2204C64.6895 43.2204 64.9105 43.1713 65.0946 43.1713C65.4752 43.1713 65.4384 43.2695 65.7576 43.2449C65.9049 43.2449 66.0523 43.0853 66.0768 42.9871C66.0768 42.9871 66.0768 42.9748 66.0768 42.9625C67.5992 42.7047 69.0848 42.3364 70.5213 41.8821C70.6563 41.9558 70.7791 42.0295 70.9141 42.1031C70.9141 42.2873 70.9387 42.4714 70.9755 42.6556C70.644 42.6188 70.3003 42.5697 69.9933 42.5819C69.5513 42.5942 69.1585 42.7293 68.8024 42.7538C68.0903 42.7907 68.1885 42.7538 67.5992 42.8029C67.4887 42.8029 67.2309 42.8643 67.2063 42.9134C67.1695 42.9871 67.4273 43.1222 67.5869 43.1467C68.1763 43.2081 68.0903 43.0976 68.8147 43.1467C69.1707 43.1713 69.5759 43.1958 70.0302 43.2081C70.3862 43.2204 70.7545 43.2081 71.1351 43.2081C71.3807 43.9447 71.7981 44.5463 72.0928 44.8656C72.4979 45.3075 73.0627 45.5654 73.6643 45.5654C73.7011 45.5654 73.7257 45.5654 73.7625 45.5654C74.2413 45.5408 74.7815 45.5163 75.3586 45.4917C75.3709 45.504 75.3831 45.5163 75.3954 45.5285C75.0148 45.6022 74.8798 45.7495 74.2782 45.7618C73.5047 45.7741 73.5047 45.7004 72.7312 45.7127C72.5839 45.7127 72.5593 45.8109 72.5593 45.9582C72.5593 46.1179 72.5716 46.1915 72.7312 46.2038C73.5047 46.2161 73.5047 46.2897 74.2782 46.302C75.0516 46.3143 75.0516 46.1915 75.8251 46.2038C75.9233 46.2038 76.0093 46.2038 76.0829 46.2161C76.8687 47.0264 77.6054 47.8858 78.2929 48.7821C78.0719 48.7821 78.0228 48.7943 77.5562 48.7821C77.2493 48.7821 76.8933 48.7329 76.5249 48.7329C76.1443 48.7329 75.7392 48.6347 75.334 48.6347C74.9534 48.6347 74.5728 48.7452 74.2168 48.7452C73.8116 48.7452 73.431 48.8312 73.0995 48.8312C72.4979 48.8312 72.5961 48.7452 72.0928 48.7575C71.9823 48.7575 71.8227 48.9048 71.8227 49.0522C71.8227 49.1995 71.9823 49.3591 72.0928 49.3591C72.5961 49.3591 72.4979 49.4082 73.0995 49.4205C73.4187 49.4205 73.7993 49.4205 74.2168 49.4205C74.5728 49.4205 74.9534 49.3468 75.334 49.3468C75.7392 49.3468 76.1443 49.4573 76.5249 49.4573C76.9055 49.4573 77.2861 49.4942 77.5931 49.4942C78.1947 49.4819 77.9982 49.445 78.5016 49.4205C78.563 49.4205 78.6121 49.3468 78.6367 49.2486C79.1523 49.9607 79.6557 50.6973 80.11 51.4585C80.0363 51.4708 79.9995 51.5077 79.8767 51.5077C79.803 51.5077 79.6557 51.6795 79.6557 51.8269C79.6557 51.9742 79.803 51.9988 79.8767 51.9988C80.0608 51.9988 80.0608 52.0724 80.245 52.0724C80.2941 52.0724 80.3555 52.0233 80.3923 51.9496C80.822 52.6863 81.2149 53.4475 81.5833 54.2332C81.5464 54.2332 81.5219 54.2332 81.4728 54.2455C81.3991 54.2578 81.3623 54.5156 81.3745 54.6752C81.3745 54.8103 81.4359 54.7366 81.4973 54.7489C81.7306 54.8103 81.7797 54.9208 81.927 54.9944C82.2094 55.6329 82.4672 56.2836 82.7005 56.9466C81.0185 56.9097 79.0295 56.8483 78.3666 56.8606C78.1456 56.8606 77.9737 57.1185 77.9737 57.2903C77.9737 57.4622 78.1578 57.5236 78.3788 57.5359C79.0664 57.5359 81.2272 57.5973 82.9461 57.6341C83.2653 58.5672 83.5476 59.5248 83.7809 60.507C83.3512 60.5807 82.8969 60.6666 82.6391 60.7157C82.5532 60.728 82.4672 60.6421 82.455 60.8017C82.455 60.9858 82.5041 61.2805 82.6146 61.3051C82.9215 61.3665 83.474 61.3296 83.9528 61.3051C84.1615 62.2504 84.3334 63.2081 84.4562 64.178C83.8177 64.2025 83.8177 64.2517 83.167 64.2762C83.0811 64.2762 83.0197 64.4358 83.0197 64.534C83.0197 64.6445 83.0811 64.6445 83.167 64.6568C83.8055 64.6814 83.7195 64.9146 84.3702 64.9392H84.4685C84.493 64.9392 84.5176 64.9269 84.5298 64.9024C84.6281 65.7249 84.7017 66.5475 84.7386 67.3701C84.3334 67.3701 83.9651 67.4561 83.6459 67.4561C83.0443 67.4561 83.1425 67.3701 82.6391 67.3824C82.5286 67.3824 82.369 67.5297 82.369 67.6771C82.369 67.8244 82.5286 67.984 82.6391 67.984C83.1425 67.984 83.0443 68.0331 83.6459 68.0454C83.9651 68.0454 84.3457 68.0454 84.7508 68.0454C84.7508 68.4137 84.7754 68.7698 84.7754 69.1381C84.7754 69.4327 84.7631 69.7274 84.7508 70.0098C84.6403 70.0221 84.5421 70.0343 84.4316 70.0343C84.1001 70.0343 83.7686 70.0589 83.4371 70.0712C83.1057 70.0712 82.7864 70.108 82.4795 70.1203C82.1726 70.1326 81.8656 70.1203 81.5833 70.1203C81.3009 70.1326 76.9792 70.1694 76.7337 70.1939C76.4881 70.2062 76.2548 70.2553 76.0584 70.2676C75.8497 70.2799 75.6778 70.2799 75.5305 70.2922C75.2358 70.329 75.3095 70.3413 75.0762 70.3658C75.0271 70.3658 74.978 70.3658 74.978 70.4149C74.978 70.464 75.0271 70.4641 75.0639 70.4641C75.2972 70.5009 75.2235 70.55 75.5182 70.5745C75.6655 70.5868 75.8374 70.6237 76.0461 70.6359C76.2548 70.6482 76.4758 70.685 76.7337 70.6973C76.9792 70.7096 81.3132 70.6359 81.5955 70.6482C81.8779 70.6605 82.1848 70.6482 82.4918 70.6728C82.7987 70.685 83.1179 70.7219 83.4494 70.7219C83.7809 70.7219 84.1124 70.7464 84.4439 70.7464C84.5421 70.7464 84.6403 70.7464 84.7508 70.771C84.7263 71.3726 84.6894 71.9742 84.6281 72.5758C84.5912 72.5758 84.5544 72.5758 84.5298 72.5758C83.5722 72.6003 83.5722 72.6985 82.6146 72.7354C82.4304 72.7354 82.2217 72.7845 82.2094 72.9686C82.2094 73.1528 82.4181 73.3615 82.6146 73.3615C83.5722 73.3861 83.5722 73.2019 84.5298 73.2388H84.5421C84.4562 74.0368 84.3457 74.8225 84.1983 75.6083C84.1492 75.6083 84.1001 75.6083 84.0387 75.6083C83.8546 75.6083 83.6459 75.6574 83.6336 75.8416C83.6336 76.0257 83.8423 76.2345 84.0387 76.2345C84.0633 76.2345 84.0756 76.2345 84.0879 76.2345C83.9037 77.1675 83.6827 78.0883 83.4249 78.9969C83.2775 79.0214 83.0934 79.0337 82.7987 79.046C82.6391 79.046 82.6268 79.1442 82.6268 79.3898C82.6268 79.6353 82.6268 79.7335 82.7987 79.7335C82.9583 79.7335 83.0811 79.7581 83.1916 79.7704C82.8724 80.7894 82.5163 81.7839 82.1235 82.7538C81.6324 82.7538 81.2763 82.7538 81.1535 82.7661C80.4046 82.7783 80.4046 82.8766 79.6557 82.9011C79.5329 82.9011 79.3119 82.9502 79.3119 83.1098C79.3119 83.2694 79.5329 83.4536 79.6557 83.4536C80.4046 83.4659 80.4046 83.5273 81.1535 83.5518C81.2518 83.5518 81.4728 83.5518 81.7797 83.5518C81.4728 84.2271 81.1535 84.9023 80.8098 85.553C80.5765 85.5162 80.3187 85.4917 79.8767 85.5039C78.8577 85.5285 71.7736 85.6635 70.7668 85.7004C69.7478 85.7249 69.7601 85.8231 68.741 85.86C68.5446 85.86 68.3236 85.9091 68.3113 86.0933C68.3113 86.2774 68.5323 86.4861 68.7288 86.4861C69.7478 86.5107 69.7478 86.3265 70.7668 86.3634C71.7858 86.3879 78.8699 86.5598 79.8767 86.5966C80.0117 86.5966 80.1222 86.5966 80.2205 86.6089C79.7171 87.4683 79.1769 88.2909 78.5998 89.0767C78.1701 89.1258 78.0842 89.2486 77.5194 89.2608C77.3721 89.2608 77.3966 89.4082 77.3966 89.6414C77.3966 89.8747 77.3844 89.9852 77.5194 89.9852C77.6913 89.9852 77.8141 89.9852 77.9246 89.9852C77.1265 91.0042 76.2548 91.9496 75.334 92.8336C74.6097 92.7967 74.0326 92.7722 73.7502 92.7599C73.3573 92.7354 72.989 92.8336 72.6575 93.0177C70.9387 93.0423 66.5925 93.0791 66.0154 93.1037C65.9295 93.1037 65.8681 93.2633 65.8558 93.3615C65.8558 93.472 65.9172 93.472 66.0154 93.4843C66.5188 93.5088 69.9074 93.6439 71.8718 93.7176C71.4789 94.2455 71.0001 95.1295 70.9264 96.0994C70.6931 96.0994 70.4476 96.0748 70.2266 96.0871C69.9442 96.0871 69.6864 96.0871 69.4286 96.0871C66.4697 95.2522 63.3881 94.8225 60.245 94.8225C57.102 94.8225 53.9099 95.2645 50.9142 96.1239C50.7914 96.1117 50.6195 96.0994 50.3126 96.0871C50.0793 96.0871 49.8215 96.0871 49.5514 96.0871C49.4777 95.1295 49.0234 94.2823 48.6306 93.7421C48.9989 93.7421 49.048 93.6807 49.5023 93.6807C49.625 93.6807 49.8583 93.5088 49.8583 93.3738C49.8583 93.2387 49.625 93.2019 49.5023 93.2019C48.9866 93.2019 48.9866 93.1282 48.4832 93.1282C48.385 93.1282 48.2622 93.1896 48.2254 93.2878C47.8202 92.9318 47.2923 92.7354 46.7398 92.7599C46.482 92.7599 46.0155 92.7967 45.4139 92.8213C44.5544 91.9987 43.7564 91.127 43.0075 90.1939C43.0075 90.1939 43.0198 90.1939 43.032 90.1939C43.8546 90.1571 43.8546 90.022 44.6649 89.9852C44.8368 89.9852 44.8491 89.887 44.8491 89.6414C44.8491 89.3959 44.8491 89.2977 44.6649 89.2977C43.8423 89.2608 43.8423 89.1749 43.0198 89.1381C42.8479 89.1381 42.7005 89.3959 42.7005 89.6414C42.7005 89.7028 42.7128 89.7765 42.7374 89.8379C41.9025 88.7697 41.1413 87.6402 40.4538 86.4493C40.6748 86.4125 40.9203 86.3756 41.3377 86.3634C42.3568 86.3388 42.3568 86.523 43.3758 86.4861C43.5845 86.4861 43.8055 86.2774 43.7932 86.0933C43.7932 85.9091 43.56 85.8723 43.3635 85.86C42.3445 85.8354 42.3568 85.7372 41.3377 85.7004C40.6011 85.6758 40.3924 85.6021 39.9504 85.553C39.5698 84.841 39.2137 84.1043 38.8823 83.3554C40.6257 83.3063 42.1603 83.2572 42.4182 83.2449C42.5041 83.2449 42.5778 83.2449 42.5655 83.1221C42.5655 83.0116 42.5041 82.8643 42.4182 82.8643C42.1481 82.852 40.4906 82.8397 38.649 82.8152C38.2316 81.8084 37.8509 80.7648 37.5317 79.6967C39.1524 79.6967 40.3556 79.6967 40.5397 79.6844C41.1659 79.6844 41.1659 79.7458 41.792 79.7458C41.9271 79.7458 41.9148 79.6353 41.9148 79.402C41.9148 79.1688 41.9271 79.0337 41.792 79.0214C41.1659 79.0214 41.1659 78.8373 40.5397 78.825C40.3556 78.825 39.0419 78.825 37.2862 78.8495C37.0652 78.0392 36.8688 77.2167 36.6969 76.3818C37.6545 76.3818 38.3298 76.3572 38.5385 76.3572C39.4961 76.3327 39.4961 76.1608 40.4538 76.124C41.4114 76.0994 41.4114 76.2836 42.3691 76.2467C42.5655 76.2467 42.7742 76.038 42.7742 75.8539C42.7742 75.6697 42.5532 75.6329 42.3691 75.6206C41.4114 75.596 41.4114 75.4978 40.4538 75.461C39.4961 75.4364 39.4961 75.3014 38.5385 75.2645C38.3298 75.2645 37.5563 75.2645 36.5004 75.2645C36.4022 74.6998 36.3285 74.1227 36.2549 73.558C36.2917 73.558 36.3408 73.558 36.3899 73.558C36.5004 73.558 36.5004 73.472 36.5004 73.2633C36.5004 73.0546 36.5004 72.9686 36.3899 72.9686C36.3163 72.9686 36.2426 72.9564 36.1935 72.9441C36.1198 72.2443 36.0584 71.5322 36.0339 70.8078C36.3408 70.8078 36.66 70.7587 36.967 70.7587C37.2985 70.7587 37.63 70.7464 37.9614 70.7341C38.2929 70.7341 38.6122 70.6973 38.9191 70.685C39.226 70.6728 39.533 70.6728 39.8153 70.6605C40.0977 70.6482 40.3801 70.7219 40.6257 70.7096C40.8712 70.6973 41.1045 70.6605 41.3132 70.6482C41.5219 70.6359 41.6938 70.5991 41.8411 70.5868C42.1358 70.55 42.0621 70.5009 42.2954 70.4763C42.3322 70.4763 42.3813 70.4763 42.3813 70.4272C42.3813 70.3781 42.3445 70.3781 42.2831 70.3781C42.0498 70.3413 42.1235 70.329 41.8288 70.3044C41.6815 70.2922 41.5096 70.3044 41.3009 70.2799C41.0922 70.2676 40.8712 70.2185 40.6257 70.2062C40.3801 70.1939 40.11 70.1448 39.8153 70.1326C39.533 70.1203 39.226 70.1326 38.9191 70.1326C38.6122 70.1203 38.2807 70.0834 37.9614 70.0834C37.63 70.0834 37.2985 70.0466 36.967 70.0466C36.6478 70.0466 36.3285 69.9729 36.0093 69.9607C36.0093 69.6906 35.9848 69.4082 35.9848 69.1381C35.9848 68.7575 35.9971 68.3769 36.0093 67.9963C36.218 68.0208 36.4268 68.0331 36.6355 68.0331C37.0406 68.0331 37.4212 68.0331 37.7527 68.0331C38.3543 68.0331 38.2561 67.984 38.7595 67.9717C38.8577 67.9717 39.0296 67.8121 39.0296 67.6648C39.0296 67.5175 38.87 67.3701 38.7595 67.3701C38.2561 67.3701 38.3543 67.4561 37.7527 67.4438C37.4335 67.4438 37.0529 67.3578 36.6355 67.3578C36.439 67.3578 36.2303 67.321 36.0339 67.2965C36.1444 65.1847 36.439 63.0976 36.9056 61.0841C37.3598 61.0841 37.4212 61.1455 37.986 61.1455C38.1211 61.1455 38.1088 61.035 38.1088 60.8017C38.1088 60.5684 38.1211 60.4334 37.986 60.4211C37.5195 60.4211 37.3967 60.3106 37.102 60.2615C37.2985 59.4634 37.5317 58.69 37.7896 57.9165C38.5753 57.8797 38.6367 57.7814 39.533 57.7569C40.4906 57.7323 40.4906 57.5604 41.4482 57.5236C42.4059 57.4991 42.4059 57.6832 43.3635 57.6464C43.56 57.6464 43.7687 57.4377 43.7687 57.2535C43.7687 57.0693 43.5477 57.0325 43.3635 57.0202C42.4059 56.9957 42.4059 56.8975 41.4482 56.8606C40.4906 56.8361 40.4906 56.701 39.533 56.6642C38.8086 56.6396 38.6244 56.7379 38.1702 56.7747C38.3789 56.1976 38.6122 55.6329 38.8454 55.0804C39.668 55.0558 41.3991 55.019 42.4795 54.9944C41.8043 55.0558 41.2886 55.0927 41.3255 55.0927C41.8166 55.0804 45.7331 54.9945 46.2365 54.9822C46.4206 54.9822 46.5188 54.9576 46.6171 54.9331C47.0099 54.9085 47.3537 54.9331 47.7589 54.8962C47.8202 54.8962 47.8571 54.7366 47.8571 54.6261C47.8571 54.5156 47.8202 54.5034 47.7589 54.5034C47.5379 54.4911 47.4642 54.442 47.3783 54.3929C47.3291 54.3192 47.2678 54.2701 47.2309 54.2701C46.7398 54.2578 46.7398 54.1964 46.2365 54.1719C45.7454 54.1596 45.7454 54.1964 45.242 54.1841L45.1683 54.221C45.0578 54.221 45.0946 54.4174 45.0946 54.6016C45.0946 54.6507 44.8737 54.6998 44.5299 54.7489C44.5667 54.7121 44.6035 54.6752 44.6035 54.6016C44.6035 54.442 44.4562 54.2578 44.3703 54.2578C43.8669 54.2455 43.8669 54.1841 43.3512 54.1596C42.9584 54.1473 40.5397 54.1596 39.2137 54.1719C39.5698 53.4107 39.9504 52.6863 40.3555 51.9619C40.3801 51.9619 40.3924 51.9619 40.4169 51.9619C40.5643 51.9742 40.7362 51.9742 40.9326 51.9988C41.1413 52.0233 41.3746 51.9742 41.6201 51.9865C41.878 51.9988 42.1726 52.0233 42.4673 52.0356C42.7374 52.0356 43.0198 52.0479 43.3144 52.0601C43.6336 52.0601 43.9528 52.1215 44.2966 52.1215C44.6158 52.1215 44.9473 52.0724 45.2788 52.0601C45.6103 52.0601 45.9418 52.0479 46.2733 52.0356C46.6048 52.0356 46.924 51.9988 47.2309 51.9865C47.5379 51.9742 47.8448 51.9742 48.1272 51.9619C48.4096 51.9496 48.6919 52.0233 48.9375 52.011C49.183 51.9988 49.4163 51.9619 49.625 51.9496C49.8337 51.9374 50.0056 51.9005 50.153 51.8883C50.4476 51.8514 50.374 51.8023 50.6072 51.7778C50.6441 51.7778 50.6932 51.7778 50.6932 51.7286C50.6932 51.6795 50.6563 51.6795 50.5949 51.6795C50.3617 51.6427 50.4353 51.6304 50.1407 51.6059C49.9934 51.5936 49.8215 51.6059 49.6128 51.5813C49.404 51.569 49.183 51.5199 48.9375 51.5077C48.6919 51.4954 48.4218 51.4463 48.1272 51.434C47.8448 51.4217 47.5379 51.434 47.2309 51.434C46.924 51.4217 46.5925 51.3849 46.2733 51.3849C45.9418 51.3849 45.6103 51.348 45.2788 51.348C44.9473 51.348 44.6281 51.2621 44.2966 51.2621C43.9651 51.2621 43.6336 51.3849 43.3267 51.3972C43.032 51.3972 42.7374 51.2989 42.4673 51.2989C42.1603 51.2989 41.878 51.3358 41.6201 51.3603C41.3746 51.3726 41.1413 51.3726 40.9326 51.3972C40.8466 51.3972 40.7607 51.3972 40.6748 51.4094C41.0799 50.7219 41.5219 50.0589 41.9762 49.4082C42.1972 49.4082 42.4182 49.3837 42.6637 49.3837C43.0443 49.3837 43.4495 49.2732 43.8546 49.2732C44.2352 49.2732 44.6158 49.3468 44.9719 49.3468C45.377 49.3468 54.315 49.3468 54.6342 49.3468C55.2358 49.3468 55.1376 49.2977 55.641 49.2854C55.7392 49.2854 55.9111 49.1258 55.9111 48.9785C55.9111 48.8312 55.7515 48.6838 55.641 48.6838C55.1376 48.6838 55.2358 48.7698 54.6342 48.7575C54.315 48.7575 45.377 48.6716 44.9719 48.6716C44.6158 48.6716 44.2352 48.5611 43.8546 48.5611C43.4495 48.5611 43.0443 48.6593 42.6637 48.6593C42.6146 48.6593 42.5655 48.6593 42.5164 48.6593C43.1671 47.7999 43.8669 46.9773 44.6035 46.2038C44.6895 46.2038 44.8 46.2038 44.9228 46.2038C45.6962 46.1915 45.6962 46.1179 46.4697 46.1056C46.6293 46.1056 46.6416 46.0196 46.6416 45.86C46.6416 45.7127 46.6293 45.6145 46.4697 45.6145C45.7822 45.6022 45.6962 45.6636 45.1438 45.6636C45.2297 45.5776 45.3156 45.4917 45.4139 45.4058C45.8927 45.4303 46.3347 45.4549 46.7398 45.4671C46.7767 45.4671 46.8012 45.4671 46.838 45.4671C47.4396 45.4671 48.0044 45.2216 48.3973 44.7796C48.6919 44.4604 49.0971 43.8465 49.3549 43.1222C49.7232 43.1099 50.067 43.0853 50.374 43.0608C51.086 43.0239 51.0124 43.1222 51.6017 43.0608C51.7736 43.0485 52.0314 42.9134 51.9823 42.8275C51.9577 42.7661 51.6999 42.7293 51.5894 42.717C51.0001 42.6556 51.0983 42.717 50.3862 42.6679C50.1161 42.6556 49.8337 42.5697 49.5145 42.5206C49.5636 42.2382 49.6005 41.9435 49.5759 41.6489C49.5759 41.6243 49.5759 41.5997 49.5759 41.5752C50.8651 42.0172 52.1787 42.3855 53.5415 42.6679C53.517 42.6679 53.4924 42.6679 53.4556 42.6679C53.2714 42.6802 53.0996 42.7784 53.1241 42.9012C53.1487 42.9994 53.296 43.1467 53.4433 43.159L53.4065 43.2695ZM86.7766 43.4782C86.7766 43.4782 86.8012 43.4291 86.8257 43.3923C92.0928 50.6114 94.978 59.6967 94.978 69.1872C94.978 78.6777 92.0928 87.7753 86.8257 94.9821C86.8134 94.9576 86.8012 94.9207 86.7766 94.8962C86.4697 94.4542 86.0645 94.0859 85.598 93.828C90.5581 86.9404 93.2837 78.2357 93.2837 69.1872C93.2837 60.1387 90.5581 51.4463 85.598 44.5341C86.0645 44.2762 86.4697 43.9079 86.7766 43.4659V43.4782ZM83.8423 45.0374C88.827 51.7286 91.5771 60.286 91.5771 69.1872C91.5771 78.0883 88.827 86.658 83.8423 93.337C83.3144 93.3001 82.6268 93.2633 81.8534 93.2142C87.0467 86.6948 89.8828 78.2357 89.8828 69.1872C89.8828 60.1387 87.0467 51.6795 81.8534 45.1602C82.6391 45.1111 83.3144 45.0743 83.8423 45.0374ZM79.7294 45.283C85.1805 51.6182 88.1762 60.0896 88.1762 69.1995C88.1762 78.3093 85.1805 86.7808 79.7294 93.116C79.0295 93.0791 78.3052 93.0423 77.6299 93.0055C83.2775 86.9772 86.4942 78.4321 86.4942 69.1995C86.4942 59.9668 83.2775 51.4217 77.6299 45.3935C78.3297 45.3567 79.0418 45.3198 79.7416 45.283H79.7294ZM33.7871 94.7611C28.5937 87.5911 25.7454 78.5672 25.7454 69.1872C25.7454 59.8072 28.5815 50.771 33.7626 43.5887C34.1063 44.0307 34.536 44.3867 35.0517 44.6323C30.1407 51.5199 27.4397 60.1755 27.4397 69.1749C27.4397 78.1743 30.153 86.8299 35.1008 93.693C34.5851 93.9385 34.1309 94.2946 33.7871 94.7366V94.7611ZM29.1585 69.1872C29.1585 60.286 31.8964 51.7409 36.881 45.0497C37.4212 45.0865 38.1088 45.1234 38.8577 45.1725C33.6766 51.6918 30.8405 60.151 30.8405 69.1872C30.8405 78.2234 33.7012 86.6826 38.9191 93.2019C38.1702 93.2387 37.4949 93.2878 36.9424 93.3247C31.9209 86.6457 29.1585 78.1006 29.1585 69.1872ZM41.0554 93.0914C35.641 86.8544 32.5471 78.1743 32.5471 69.1995C32.5471 60.2246 35.5428 51.6304 40.9817 45.2953C41.6815 45.3321 42.3936 45.3689 43.0934 45.4058C37.4458 51.434 34.2291 59.9668 34.2291 69.1995C34.2291 78.4321 37.4335 86.965 43.0811 92.9932C42.4182 93.03 41.7306 93.0668 41.0431 93.1037L41.0554 93.0914ZM33.8853 38.1252C35.5428 36.7624 37.1389 36.8852 38.6367 38.5058C39.8153 39.7827 39.7908 41.2437 39.4102 42.1154C39.0541 42.9134 38.3789 43.38 37.544 43.38C37.2002 43.3554 36.881 43.3432 36.6232 43.3186C35.9725 43.2695 35.42 42.9748 35.0885 42.5083C34.8675 42.1768 34.7816 41.8453 34.843 41.5015C34.9535 40.8508 35.2113 40.372 35.5673 40.1878C35.8252 40.0528 36.1321 40.0773 36.4881 40.2369C36.6846 40.3229 36.8319 40.6421 36.7951 40.814C36.7705 40.9122 36.5004 40.9368 36.4513 40.949C35.9848 40.9859 35.6287 41.391 35.6656 41.8576C35.7024 42.3241 36.1198 42.6802 36.5741 42.6433C37.6054 42.5697 38.3175 42.0049 38.4771 41.1209C38.649 40.1756 38.0965 39.1074 37.2125 38.69C36.3654 38.2971 35.4937 38.2848 34.7693 38.6654C33.9222 39.1074 33.3574 40.016 33.161 41.2192C33.1364 41.3419 33.1364 41.477 33.1364 41.5997C27.2801 49.224 24.0511 59.0092 24.0511 69.1872C24.0511 79.3652 27.2801 89.1135 33.1241 96.7255C33.1241 96.8729 33.1241 97.0079 33.1487 97.1552C33.3451 98.3584 33.9222 99.267 34.757 99.7089C35.1131 99.8931 35.506 99.9913 35.9111 99.9913C36.3163 99.9913 36.7705 99.8931 37.2002 99.6844C38.0842 99.267 38.6367 98.1988 38.4648 97.2535C38.3052 96.3695 37.5931 95.8047 36.5618 95.731C36.0953 95.7065 35.6778 96.0503 35.6533 96.5168C35.6165 96.9834 35.9725 97.4008 36.439 97.4253C36.4881 97.4253 36.7705 97.4499 36.7828 97.5604C36.8196 97.7323 36.6723 98.0392 36.4759 98.1374C36.1198 98.3093 35.8129 98.3216 35.5551 98.1865C35.199 98.0024 34.9412 97.5236 34.8307 96.8729C34.7693 96.5168 34.8552 96.1853 35.0762 95.8661C35.3955 95.3996 35.9602 95.0926 36.6109 95.0435C36.8688 95.019 37.188 95.0067 37.5317 94.9821C38.3666 94.9821 39.0541 95.4487 39.4102 96.2467C39.7908 97.1184 39.8153 98.5794 38.6367 99.844C37.0897 101.514 35.6042 101.661 33.959 100.323C26.6171 92.2074 22.3445 80.9735 22.3445 69.1626C22.3445 57.3517 26.5802 46.2038 33.8731 38.1007L33.8853 38.1252ZM39.889 101.035C41.3255 99.488 41.7429 97.3517 40.9817 95.5837C40.8589 95.3013 40.7116 95.0558 40.5397 94.8225C43.1548 94.6875 46.0032 94.5401 46.8012 94.5033C46.924 94.491 47.0345 94.5401 47.1204 94.6384C47.3783 94.9207 47.8939 95.7556 47.8448 96.5045C47.8202 96.8606 47.6729 97.143 47.3905 97.4008C46.8749 97.6218 46.3592 97.8305 45.8681 98.076C44.6649 98.6654 43.5968 99.267 42.5655 99.9422C41.5096 100.63 40.5397 101.366 39.6803 102.115C38.9928 102.705 38.342 103.343 37.7282 103.994C37.3107 103.638 36.8933 103.294 36.5004 102.926C37.6791 102.803 38.8331 102.177 39.9013 101.023L39.889 101.035ZM82.8601 104.129C82.2585 103.49 81.6324 102.864 80.9694 102.275C80.0977 101.501 79.1278 100.765 78.1087 100.09C77.0774 99.3897 75.9725 98.7636 74.8184 98.1988C74.2413 97.9164 73.652 97.6463 73.0627 97.4008C72.7926 97.143 72.6453 96.8606 72.6207 96.5168C72.6207 96.4063 72.6207 96.2835 72.633 96.173C72.6575 96.1485 72.6944 96.1362 72.7189 96.1239C72.6944 96.1239 72.6698 96.1239 72.6453 96.1239C72.7435 95.4978 73.1364 94.8962 73.3451 94.6629C73.431 94.577 73.5415 94.5156 73.6643 94.5279C74.4623 94.5647 77.3107 94.6997 79.9258 94.8471C79.7539 95.0803 79.6066 95.3259 79.4838 95.6083C78.7103 97.3762 79.14 99.5125 80.5765 101.059C81.6815 102.25 82.9338 102.889 84.2106 102.999C83.7809 103.404 83.3266 103.773 82.8724 104.153L82.8601 104.129ZM86.7275 100.396C85.1069 101.722 83.3635 101.538 81.8165 99.8686C80.6379 98.5917 80.6624 97.1307 81.043 96.2713C81.3991 95.4732 82.0743 95.0067 82.9215 95.0067C83.2653 95.0312 83.5845 95.0435 83.8423 95.0681C84.4807 95.1172 85.0578 95.4241 85.377 95.8907C85.598 96.2221 85.6839 96.5414 85.6225 96.8974C85.512 97.5481 85.2542 98.0269 84.8982 98.2111C84.6403 98.3462 84.3334 98.3216 83.9774 98.162C83.7809 98.076 83.6336 97.7568 83.6704 97.585C83.6827 97.4867 83.9651 97.4622 84.0142 97.4499C84.4807 97.4131 84.8368 97.0079 84.7999 96.5414C84.7631 96.0748 84.3457 95.7188 83.8914 95.7556C82.8601 95.8293 82.148 96.394 81.9884 97.278C81.8165 98.2234 82.369 99.2915 83.253 99.7089C83.6827 99.9054 84.1124 100.016 84.5421 100.016C84.9718 100.016 85.3401 99.9177 85.6962 99.7335C86.5311 99.2915 87.1081 98.3953 87.3045 97.2044C93.3573 89.5309 96.6968 79.6108 96.6968 69.2117C96.6968 58.8127 93.3573 48.9048 87.3045 41.2314C87.1081 40.0405 86.5311 39.1443 85.6962 38.7023C84.9595 38.3217 84.1001 38.3217 83.253 38.7268C82.369 39.1443 81.8165 40.2124 81.9884 41.1578C82.148 42.0417 82.8601 42.6065 83.8914 42.6802C84.358 42.717 84.7754 42.361 84.7999 41.8944C84.8245 41.4279 84.4807 41.0104 84.0142 40.9859C83.9651 40.9859 83.6827 40.9613 83.6704 40.8508C83.6336 40.6789 83.7809 40.372 83.9774 40.2738C84.3334 40.1019 84.6403 40.0896 84.8982 40.2247C85.2542 40.4088 85.512 40.8877 85.6225 41.5384C85.6839 41.8944 85.598 42.2136 85.377 42.5451C85.0578 43.0117 84.4807 43.3186 83.8423 43.3554C83.5722 43.38 83.2653 43.3923 82.9215 43.4168C82.0866 43.4168 81.3991 42.9503 81.0553 42.1522C80.6747 41.2805 80.6502 39.8195 81.8288 38.5427C83.3758 36.8607 85.1192 36.6888 86.7398 38.0147C94.1063 46.1301 98.3911 57.3886 98.3911 69.224C98.3911 81.0595 94.1063 92.3179 86.7275 100.433V100.396ZM80.5642 37.3517C79.1278 38.8987 78.7103 41.035 79.4715 42.8029C79.5943 43.0853 79.7416 43.3309 79.9135 43.5641C77.7527 43.6746 75.3217 43.7974 73.652 43.8834C73.5292 43.8834 73.4187 43.8465 73.3328 43.7483C73.075 43.4659 72.5593 42.6311 72.6084 41.8821C72.633 41.5261 72.7803 41.2437 73.0627 40.9859C76.8564 39.4144 80.2327 37.143 82.9215 34.3069C83.3512 34.663 83.7809 35.0313 84.1983 35.4119C82.9215 35.5101 81.6692 36.1608 80.5642 37.3517ZM60.3678 41.7839C51.7122 41.7839 43.5231 38.3094 38.4525 32.4776C38.2193 32.2075 37.8755 31.7778 37.4703 31.2253C37.1634 30.8201 37.1634 30.2554 37.4703 29.8625C37.6545 29.617 37.8509 29.3714 38.0474 29.1381C38.5385 29.9607 39.1278 30.771 39.8399 31.6182C44.5544 37.1921 52.2401 40.5193 60.3924 40.5193C68.5446 40.5193 75.6041 37.4377 80.3432 32.2689C80.7729 32.5758 81.1904 32.895 81.6078 33.2142C76.4758 38.5795 68.6183 41.7594 60.3924 41.7594L60.3678 41.7839ZM60.3678 38.825C52.7189 38.825 45.5244 35.7188 41.129 30.5255C40.4292 29.6906 39.8645 28.9049 39.3734 28.07C39.3242 27.9963 39.2751 27.9227 39.2383 27.849C39.2506 27.8367 39.2629 27.8244 39.2751 27.8122C39.5575 27.5543 39.8522 27.2965 40.1591 27.051C40.2328 26.9896 40.3064 26.9405 40.3678 26.8791C40.4292 26.83 40.5029 26.7809 40.5643 26.7318C40.6379 26.8791 40.7116 27.0141 40.7975 27.1737C41.3132 28.1068 41.9516 29.0154 42.676 29.8748C46.7275 34.6998 53.3451 37.585 60.3678 37.585C67.3905 37.585 73.431 34.9331 77.5194 30.4887C77.9737 30.7588 78.4402 31.0289 78.8945 31.3112C74.4623 36.0258 67.6238 38.825 60.3801 38.825H60.3678ZM60.3678 35.8907C53.8362 35.8907 47.7097 33.2388 43.9774 28.7944C43.3144 28.0086 42.7497 27.186 42.2831 26.3634C42.1726 26.1547 42.0621 25.946 41.9639 25.7496C41.9639 25.7496 41.9762 25.7496 41.9885 25.7373C42.3077 25.5408 42.6269 25.3444 42.9706 25.148C43.0443 25.1111 43.118 25.062 43.1916 25.0252C43.2776 24.9761 43.3758 24.927 43.4617 24.8779C43.5722 25.1234 43.695 25.369 43.8301 25.6268C44.3334 26.5844 44.9719 27.5175 45.7331 28.4015C49.1339 32.318 54.5974 34.6507 60.3555 34.6507C66.1137 34.6507 71.0737 32.5267 74.4746 28.9294C74.978 29.1627 75.4691 29.396 75.9602 29.6538C72.191 33.5703 66.4329 35.8907 60.3555 35.8907H60.3678ZM60.3678 32.9441C55.1008 32.9441 50.1161 30.8324 47.0345 27.2842C46.3592 26.4985 45.7945 25.6759 45.3525 24.8287C45.2174 24.5709 45.1069 24.3376 44.9964 24.1044C45.3279 23.957 45.6717 23.8097 46.0277 23.6624C46.1137 23.6256 46.1996 23.5887 46.2978 23.5519C46.4083 23.5151 46.5188 23.4659 46.6171 23.4291C46.7398 23.736 46.8749 24.043 47.0222 24.3376C47.5501 25.3567 48.25 26.3266 49.0971 27.1983C51.8595 30.0712 55.9725 31.7164 60.3678 31.7164C64.5299 31.7164 68.4218 30.2185 71.1842 27.628C71.7245 27.8122 72.2647 28.0209 72.8049 28.2296C69.7109 31.2007 65.156 32.9564 60.3678 32.9564V32.9441ZM60.2327 115.215C57.8141 115.215 55.3709 114.958 52.9891 114.466C51.6017 114.172 50.3248 113.828 49.0603 113.411C47.8571 113.018 46.6907 112.576 45.5857 112.085C44.5176 111.618 43.4495 111.078 42.3813 110.489C41.4728 109.985 40.5029 109.396 39.4225 108.659C38.5508 108.082 37.6422 107.395 36.6355 106.584C26.0155 97.941 19.6803 83.9693 19.6803 69.1872C19.6803 54.4051 25.819 40.9613 36.1198 32.2812C36.3285 32.5635 36.525 32.8091 36.6969 33.0301C35.2972 34.2087 33.9713 35.4979 32.7312 36.8607C32.7067 36.8852 32.6821 36.8975 32.6576 36.922C32.6085 36.9589 32.5839 37.0203 32.5471 37.0694C25.021 45.4794 20.6502 57.0448 20.6502 69.1995C20.6502 81.3541 25.0456 92.9809 32.6085 101.391C32.6453 101.452 32.6821 101.514 32.7312 101.551C32.7558 101.575 32.7804 101.587 32.8049 101.612C34.18 103.122 35.6533 104.546 37.2371 105.835C38.1947 106.621 39.091 107.284 39.9627 107.861C40.994 108.561 41.9393 109.138 42.8602 109.654C43.916 110.243 44.9719 110.771 45.9786 111.213C47.059 111.692 48.2008 112.134 49.3672 112.502C50.0302 112.723 50.7054 112.919 51.393 113.104L51.3439 113.14L53.1732 113.521C55.4937 114 57.8632 114.245 60.2205 114.258H60.3433C61.4728 114.282 62.5409 114.577 63.4494 115.08C62.4181 115.166 61.3868 115.215 60.3555 115.215H60.2205H60.2327ZM67.6238 116.799C67.4396 116.836 67.2432 116.75 67.1818 116.603C67.0345 116.271 66.8503 115.952 66.6293 115.645C65.3033 113.754 62.9706 112.6 60.3678 112.551H60.2327C59.5698 112.551 58.8945 112.514 58.2315 112.478C58.0228 112.465 57.8264 112.441 57.6177 112.428C57.1266 112.392 56.6355 112.342 56.1444 112.281C56.0339 112.269 55.9111 112.257 55.8006 112.232C57.1511 111.63 58.6612 111.311 60.2327 111.311C62.6269 111.311 64.8982 112.06 66.6293 113.411C67.5133 114.098 68.2254 114.921 68.7165 115.842C68.827 116.05 68.9375 116.271 69.0234 116.48C68.5691 116.59 68.0903 116.701 67.6238 116.799ZM60.3678 23.159C82.811 23.159 101.055 43.8097 101.055 69.1872C101.055 83.7605 94.892 97.5113 84.5544 106.179C84.5298 106.155 84.5176 106.118 84.5053 106.093C84.3211 105.848 84.1492 105.614 83.9774 105.406C85.3524 104.252 86.6538 102.999 87.8693 101.673C87.8939 101.649 87.9307 101.624 87.9552 101.6C88.0166 101.551 88.0412 101.489 88.0903 101.428C95.69 93.0055 100.098 81.391 100.098 69.1749C100.098 56.9588 95.69 45.3321 88.0903 36.9098C88.0535 36.8607 88.0166 36.7993 87.9675 36.7502C87.943 36.7256 87.9184 36.7133 87.8939 36.6888C86.4942 35.1664 85.0087 33.7299 83.4003 32.4285C79.1646 29.0031 74.2904 26.5476 69.2199 25.2216L69.269 25.1848L67.4764 24.8165C67.4764 24.8165 67.4396 24.8165 67.4273 24.8165L67.3291 24.7919C67.059 24.7305 66.7889 24.6814 66.5188 24.6446C64.4685 24.2885 62.4059 24.0798 60.3678 24.0798H60.245C59.1523 24.0553 58.0965 23.7729 57.2002 23.2941C58.2561 23.2081 59.3119 23.1467 60.3555 23.1467L60.3678 23.159ZM55.5919 11.6059C55.7638 10.6114 56.4267 10.1695 57.4212 10.3659C57.7159 10.415 57.9983 10.5255 58.3297 10.6114C58.4034 13.4967 58.4894 16.345 58.563 19.2302C57.6709 19.3694 57.0938 19.0583 56.8319 18.2971C56.218 16.5783 55.6655 14.8349 55.5305 12.9933C55.4937 12.5267 55.5182 12.0479 55.5919 11.5936V11.6059ZM53.9835 19.7213C53.738 19.7582 53.5047 19.8073 53.2592 19.8441C53.0504 19.8195 52.8417 19.8318 52.6207 19.8687C52.4366 19.9055 52.2524 19.9546 52.0682 19.9914C51.9455 19.9546 51.7981 19.8564 51.7368 19.7582C50.8159 18.3585 50.0056 16.8975 49.6864 15.2401C49.3549 13.4967 50.1284 12.4531 51.8595 12.318C51.8964 14.9454 52.9277 17.2781 53.9835 19.709V19.7213Z" fill="white"/>
<path d="M51.9832 7.99635C51.9832 7.99635 52.5602 7.11237 52.2655 6.53533C51.9709 5.95829 50.915 5.90918 50.915 5.90918C50.915 5.90918 50.338 6.79316 50.6326 7.3702C50.9273 7.94724 51.9832 7.99635 51.9832 7.99635Z" fill="white"/>
<path d="M69.8964 7.3702C70.1911 6.79316 69.614 5.90918 69.614 5.90918C69.614 5.90918 68.5581 5.95829 68.2635 6.53533C67.9688 7.11237 68.5459 7.99635 68.5459 7.99635C68.5459 7.99635 69.6017 7.94724 69.8964 7.3702Z" fill="white"/>
<path d="M59.6204 7.03871C59.6204 7.03871 59.7309 7.07555 59.78 7.08783C59.8168 7.08783 59.8291 7.1001 59.8414 7.12466C60.001 7.17377 60.1851 7.2106 60.3693 7.2106C60.5535 7.2106 60.7254 7.18604 60.885 7.12466C60.9095 7.08783 60.9463 7.07555 61.02 7.06327C61.0568 7.06327 61.0814 7.06327 61.106 7.05099C61.1428 7.05099 61.1673 7.03872 61.1919 7.02644C62.2969 6.67039 62.9598 5.89691 63.2668 4.79194C63.3282 4.58322 63.3527 4.36223 63.3896 4.14124C63.3036 4.14124 63.2545 4.14124 63.2054 4.14124C62.7266 4.19035 62.3091 4.3254 61.9285 4.54639C61.3883 4.85333 60.9463 5.31987 60.6149 5.94602C60.5535 6.05652 60.4921 6.14246 60.357 6.14246C60.222 6.14246 60.1729 6.05652 60.1115 5.9583C59.8045 5.34443 59.3626 4.87788 58.8101 4.55867C58.5277 4.39906 58.2208 4.27629 57.8893 4.20262C57.7174 4.16579 57.5455 4.15351 57.3613 4.14124C57.3613 4.17807 57.3613 4.20262 57.3613 4.2149C57.3982 4.41134 57.4104 4.62006 57.4718 4.80422C57.8033 5.93374 58.4909 6.7195 59.6204 7.05099V7.03871Z" fill="white"/>
<path d="M59.6694 2.61881C59.7922 2.52059 59.9272 2.39782 60.0746 2.28732C60.3201 2.10316 60.406 2.10316 60.6516 2.28732C60.7989 2.39782 60.934 2.52059 61.0567 2.61881C61.2655 2.45921 61.4619 2.2996 61.6706 2.12771C61.6952 2.10316 61.6952 2.04177 61.6829 2.01722C61.4373 1.45245 61.0199 1.02274 60.5165 0.678975C60.4183 0.617588 60.3201 0.617588 60.2219 0.678975C60.1237 0.75264 60.0132 0.826305 59.9272 0.899969C59.5589 1.20691 59.252 1.56295 59.0678 2.00494C59.0555 2.04177 59.0555 2.10316 59.0678 2.12771C59.2642 2.2996 59.473 2.45921 59.6817 2.61881H59.6694Z" fill="white"/>
<path d="M60.4183 2.74159C60.4183 2.74159 60.3324 2.71703 60.3078 2.74159C59.8781 3.08536 59.5343 3.49051 59.3993 4.043C59.3502 4.21488 59.3379 4.37449 59.5466 4.47271C59.8535 4.73053 60.1236 5.01292 60.3569 5.36896C60.3938 5.31985 60.4183 5.2953 60.4306 5.25846C60.6639 4.92697 60.934 4.64459 61.2532 4.41132C61.3391 4.34993 61.3637 4.27627 61.3391 4.17805C61.2409 3.56418 60.8849 3.10991 60.406 2.72931L60.4183 2.74159Z" fill="white"/>
<path d="M61.4358 3.07312C61.6322 3.36778 61.7673 3.67471 61.841 4.01848C62.1724 3.90798 62.4917 3.78521 62.8354 3.67471C62.774 3.26956 62.6635 2.8644 62.4426 2.49608C62.3934 2.41013 62.2952 2.36102 62.1847 2.41013C61.9023 2.54519 61.6445 2.72935 61.4481 2.9749C61.4235 2.99945 61.4235 3.04856 61.4358 3.07312Z" fill="white"/>
<path d="M59.0428 3.53967C59.1164 3.38006 59.2146 3.23273 59.2883 3.0854C59.3006 3.04857 59.2883 2.98718 59.2638 2.96263C59.0919 2.75391 58.8709 2.5943 58.6253 2.45925C58.4412 2.36103 58.3184 2.38559 58.2324 2.58203C58.1342 2.82758 58.036 3.07313 57.9623 3.33095C57.9255 3.44145 57.9132 3.56422 57.8887 3.67472C58.2324 3.79749 58.5517 3.90799 58.8831 4.01849C58.9323 3.85888 58.9814 3.69928 59.0428 3.53967Z" fill="white"/>
<path d="M49.9205 58.7636H53.174L56.2434 63.871L58.6006 58.7636H62.0997C61.6209 62.4346 61.6209 64.7919 62.0997 68.5365H58.6006C58.9812 65.5776 59.0672 63.4782 58.8339 60.9122L55.5067 67.984H55.4331L51.4674 61.3542C51.2956 63.7114 51.3815 65.7372 51.7375 68.5242H49.9082C50.387 64.7796 50.387 62.4223 49.9082 58.7513L49.9205 58.7636Z" fill="white"/>
<path d="M64.9238 60.4211H73.7636L74.1565 63.2081H74.0828C71.922 61.7593 70.7925 61.3665 68.3124 61.2805C68.1282 62.8152 68.0669 64.1412 68.0791 65.4794C69.1964 65.3689 70.0067 64.9883 71.0994 64.178H71.173L70.7311 67.6402H70.6574C69.7489 66.8176 69.0368 66.4248 68.1037 66.2897C68.1405 67.4929 68.2633 68.7329 68.4352 70.1817H64.9361C65.4149 66.437 65.4149 64.0798 64.9361 60.4088L64.9238 60.4211Z" fill="white"/>
<path d="M53.6406 75.5223C53.6406 70.9674 57.6308 70.5009 59.8162 70.5009C62.0016 70.5009 66.004 70.9797 66.004 75.5223C66.004 80.065 61.9647 80.7034 59.8039 80.7034C57.6431 80.7034 53.6529 80.1509 53.6529 75.5223H53.6406ZM63.0574 75.5223C63.0574 73.1037 61.9525 71.4094 59.8162 71.4094C57.6799 71.4094 56.5627 73.116 56.5627 75.5223C56.5627 77.9287 57.6799 79.7949 59.8039 79.7949C61.9279 79.7949 63.0574 77.941 63.0574 75.5223Z" fill="white"/>
<path d="M39.681 124.301L38.306 123.589C38.7111 122.999 39.0303 122.496 39.3127 121.993L37.4711 121.035C37.2133 121.563 36.98 122.103 36.7345 122.778L35.3594 122.066C36.2925 120.728 36.7713 119.807 37.3483 118.248L38.7234 118.96C38.306 119.562 37.9745 120.09 37.6921 120.605L39.5337 121.563C39.7915 121.035 40.0371 120.458 40.2826 119.783L41.6577 120.495C40.7123 121.857 40.2335 122.791 39.6688 124.325L39.681 124.301Z" fill="white"/>
<path d="M35.8011 119.881C34.6716 121.538 33.1001 120.728 32.3143 120.188C31.5163 119.647 30.1781 118.481 31.3076 116.824C32.4494 115.129 34.0577 115.94 34.8435 116.468C35.6293 116.996 36.9552 118.186 35.8011 119.881ZM32.3757 117.548C31.7741 118.432 31.7619 119.316 32.5353 119.844C33.3088 120.372 34.1437 120.028 34.7453 119.144C35.3469 118.26 35.396 117.315 34.6225 116.787C33.849 116.259 32.9773 116.664 32.3757 117.536V117.548ZM34.0209 118.641C33.7754 118.997 33.4684 118.985 33.2351 118.825C33.0019 118.665 32.8791 118.395 33.1247 118.027C33.3702 117.659 33.7017 117.671 33.9227 117.818C34.156 117.978 34.2665 118.285 34.0209 118.641Z" fill="white"/>
<path d="M29.5033 118.076L28.3615 117.106L28.6561 112.969C27.8335 113.779 27.2688 114.503 26.569 115.584L25.9551 115.056C27.1705 113.963 27.8335 113.165 28.7543 111.778L29.9821 112.821L29.6138 116.861C30.4118 116.075 30.9766 115.363 31.6887 114.27L32.3025 114.798C31.0748 115.915 30.3995 116.713 29.5033 118.076Z" fill="white"/>
<path d="M23.1811 109.138C24.3229 108.058 25.5752 108.315 26.7293 109.531C27.9816 110.857 28.043 112.048 26.9503 113.079C25.9436 114.037 24.7404 113.988 23.4512 112.625C22.9847 112.134 22.5181 111.348 22.334 110.734L23.1566 109.715L23.1811 109.74C22.9601 110.943 23.2302 111.814 23.7827 112.404C24.3843 113.042 25.3297 112.833 26.0663 112.146C26.803 111.458 27.0976 110.513 26.4592 109.838C25.8822 109.224 24.9368 109.347 24.4703 109.789C24.9 110.243 25.5875 110.869 25.9804 110.967L25.2315 111.336L23.1811 109.163V109.138Z" fill="white"/>
<path d="M20.2697 108.868L19.3611 107.616C19.9873 107.272 20.503 106.965 20.9818 106.633C20.3679 105.823 19.3243 105.442 18.4281 106.339L17.5195 105.086C18.2685 104.853 19.4348 104.681 20.6134 105.823C20.5152 105.602 20.4416 105.381 20.3802 105.086C20.1469 104.08 20.6626 103.097 20.859 102.361L21.9026 103.797C20.8344 104.571 20.7362 105.492 21.2887 106.4C21.7921 106.032 22.2709 105.614 22.8357 105.086L23.7442 106.339C22.2832 107.137 21.4483 107.751 20.2574 108.868H20.2697Z" fill="white"/>
<path d="M18.9066 103.392C17.1755 104.399 16.1073 102.999 15.6285 102.164C15.1374 101.342 14.4376 99.7089 16.1564 98.6899C17.9244 97.6586 19.0171 99.0705 19.5082 99.8931C19.987 100.716 20.6623 102.361 18.9066 103.392ZM16.8071 99.8194C15.8863 100.36 15.4934 101.158 15.96 101.968C16.4388 102.778 17.3351 102.827 18.2436 102.287C19.1644 101.747 19.6187 100.912 19.1521 100.102C18.6856 99.2915 17.7279 99.2792 16.8071 99.8194ZM17.8262 101.514C17.4578 101.735 17.1877 101.587 17.0404 101.342C16.8931 101.096 16.9054 100.789 17.2737 100.581C17.642 100.36 17.9489 100.495 18.084 100.74C18.219 100.974 18.1945 101.305 17.8262 101.526V101.514Z" fill="white"/>
<path d="M13.9956 99.0951L13.3695 97.7446L15.3707 94.1105C14.2903 94.5034 13.4677 94.9208 12.375 95.6083L12.0312 94.8717C13.5905 94.3806 14.5236 93.9386 15.9355 93.0669L16.6107 94.5279L14.585 98.0515C15.6285 97.6709 16.4511 97.2535 17.5438 96.566L17.8876 97.3026C16.3038 97.806 15.3584 98.248 13.9834 99.1074L13.9956 99.0951Z" fill="white"/>
<path d="M11.921 88.3646C13.4066 87.8367 14.4379 88.5856 15.0026 90.1571C15.6042 91.876 15.1745 92.9932 13.7749 93.4843C12.4612 93.9509 11.3808 93.4229 10.7669 91.6427C10.5459 91.0043 10.4354 90.0957 10.5214 89.4696L11.6877 88.868V88.8925C11.0002 89.9116 10.902 90.8078 11.1721 91.569C11.4667 92.3916 12.4121 92.5881 13.3575 92.2566C14.3028 91.9251 14.9658 91.1884 14.6466 90.3045C14.3642 89.5187 13.4557 89.2363 12.8541 89.445C13.0628 90.0343 13.4311 90.8938 13.7626 91.127L12.94 91.1639L11.9455 88.3523L11.921 88.3646Z" fill="white"/>
<path d="M9.36697 87.0509L9.06004 85.6513L10.963 83.8465L8.54438 83.3186L8.21289 81.8085C9.83351 81.6611 10.8525 81.4401 12.4118 80.8754L12.7433 82.3855C11.4296 82.5083 10.5211 82.6679 9.44064 83.0116L12.8047 83.7606V83.7851L10.3369 86.1301C11.3682 85.9828 12.2276 85.7495 13.394 85.3321L13.5659 86.1178C11.9084 86.2652 10.9017 86.4984 9.36697 87.0509Z" fill="white"/>
<path d="M10.6084 80.4333C9.90862 80.5193 9.07375 80.6297 8.067 80.8998L7.87056 79.3529C8.63176 79.3652 9.22108 79.3652 9.78584 79.3038C10.8417 79.1687 11.8485 78.9355 11.6766 77.6218C11.5415 76.5536 10.7189 76.2713 10.1296 76.3449C9.34385 76.4431 8.26344 76.5659 7.55134 76.8483L7.45312 76.0257C8.21433 76.0748 9.40524 75.9275 10.1296 75.8415C11.075 75.7188 11.9221 76.3817 12.0694 77.5727C12.2536 79.0828 11.9344 80.2614 10.5962 80.421L10.6084 80.4333Z" fill="white"/>
<path d="M7.41546 75.2032L7.3418 73.6562C8.83965 73.779 9.83412 73.7544 11.2583 73.5212C11.1724 72.5267 10.9759 72.0601 10.3007 71.1516L11.5407 71.2744L11.7003 75.019C10.0428 74.884 9.01153 74.9331 7.40318 75.2032H7.41546Z" fill="white"/>
<path d="M7.67302 67.7507C8.91304 67.9595 10.1162 67.9349 11.6264 67.8121L11.5772 69.3591C10.0794 69.1504 8.87621 69.0399 7.62391 69.1872C7.7344 69.8134 8.02906 70.415 8.4465 70.9674V70.992L7.21875 70.7833L7.36608 66.1178L8.6061 65.9828V66.0073C8.15184 66.523 7.82035 67.1246 7.67302 67.7507Z" fill="white"/>
<path d="M7.46484 65.3934L7.5999 63.8588C9.19596 64.2148 10.2273 64.3008 11.8847 64.2516L11.7497 65.7863C10.1291 65.4303 9.09775 65.3321 7.46484 65.3934Z" fill="white"/>
<path d="M7.82087 61.7839L8.4593 57.941L9.69932 57.9779V58.0024C8.90129 58.8373 8.65574 59.3038 8.43474 60.372C9.08545 60.5561 9.66249 60.6912 10.2395 60.7771C10.2764 60.286 10.1659 59.9054 9.89576 59.3775V59.3529L11.3691 59.7949V59.8195C10.9393 60.151 10.7184 60.4334 10.5956 60.8262C11.1235 60.8999 11.6637 60.9367 12.3144 60.9613L12.0566 62.4837C10.4605 62.0049 9.4415 61.833 7.80859 61.7716L7.82087 61.7839Z" fill="white"/>
<path d="M11.9092 56.1485C11.8355 56.4555 11.811 56.7133 11.8601 56.9097C12.1916 57.1307 12.5476 57.3517 12.9405 57.585L12.7441 58.3707C11.369 57.0939 10.4605 56.4186 9.01172 55.5838L9.39232 54.0859C11.0743 54 12.2039 53.8158 14.0209 53.3247L13.6403 54.8226C12.7195 54.8594 12.1547 55.1786 11.9092 56.1608V56.1485ZM11.4427 55.9889C11.5409 55.596 11.7741 55.1909 12.0688 54.9453C11.3322 55.0313 10.6446 55.1663 9.83431 55.3628C10.3745 55.8416 10.8533 56.2345 11.3813 56.5905C11.369 56.4064 11.3813 56.1976 11.4427 55.9889Z" fill="white"/>
<path d="M10.0059 51.7286L10.4847 50.3781L13.0629 49.8624L11.295 48.1313L11.8106 46.6703C13.2594 47.4069 14.2416 47.763 15.8745 48.119L15.3588 49.58C14.1802 48.9907 13.3331 48.647 12.2281 48.3523L14.6713 50.7832V50.8078L11.3195 51.4708C12.2772 51.8882 13.1243 52.1583 14.3398 52.4161L14.0697 53.1773C12.5841 52.4284 11.6019 52.0724 10.0181 51.7286H10.0059Z" fill="white"/>
<path d="M12.168 45.9092L12.7818 44.4973C14.1815 45.3321 15.1391 45.7496 16.7352 46.2161L16.1213 47.628C14.6971 46.7809 13.7395 46.3634 12.168 45.9092Z" fill="white"/>
<path d="M13.1119 43.7606L13.8117 42.3855C15.0517 43.2327 15.9357 43.6869 17.2862 44.1903C17.6914 43.2818 17.765 42.7784 17.6177 41.6489L18.6367 42.361L16.9425 45.7004C15.5674 44.7673 14.6466 44.3008 13.0996 43.7606H13.1119Z" fill="white"/>
<path d="M18.33 38.5672C17.9617 37.7324 17.4951 36.9466 17.0654 36.6274L17.5319 35.8662H17.5565C17.7652 36.431 18.5019 38.2849 19.2017 38.8619C19.6068 39.1197 20.012 39.3162 20.4049 39.4144L19.5946 40.7281C19.3367 40.4211 18.9439 40.1142 18.5141 39.8932C17.6916 39.5986 15.8131 39.7582 15.0519 39.9669H15.0273L15.9482 38.4445C16.5743 38.7146 17.8757 38.5918 18.33 38.555V38.5672Z" fill="white"/>
<path d="M83.7084 21.0473C84.8257 19.3898 86.4095 20.2001 87.1952 20.728C87.981 21.256 89.3315 22.4223 88.2142 24.0921C87.0724 25.7864 85.4641 24.9883 84.6783 24.4604C83.8926 23.9325 82.5666 22.7415 83.7084 21.0473ZM87.1584 23.3677C87.7477 22.4837 87.7723 21.5875 86.9865 21.0718C86.2007 20.5562 85.3781 20.8877 84.7888 21.7716C84.1995 22.6556 84.1504 23.601 84.9239 24.1289C85.6974 24.6568 86.5691 24.2517 87.1584 23.3677Z" fill="white"/>
<path d="M90.0554 22.8767L93.0388 25.3813L92.3758 26.4371L92.3513 26.4126C92.0321 25.3076 91.762 24.8533 90.9516 24.129C90.3869 24.6692 89.9449 25.148 89.5152 25.6759C90.1413 25.3567 90.6202 25.504 90.9025 25.7373C91.4305 26.1793 91.1604 26.83 90.436 27.0019H90.4237C90.5342 26.6213 90.3869 26.3389 90.1782 26.1547C89.7116 25.7619 89.3187 25.9951 89.0118 26.3635C88.8399 26.5599 88.6067 26.9405 88.4716 27.1615L87.293 26.167C88.5084 25.0375 89.1837 24.2395 90.0554 22.8644V22.8767Z" fill="white"/>
<path d="M93.7147 26.0074L96.4649 28.7698L95.716 29.7643L95.6914 29.7397C95.4704 28.6102 95.2371 28.1437 94.5005 27.3456C93.8866 27.8367 93.4078 28.2664 92.929 28.7575C93.5797 28.4997 94.0462 28.6839 94.304 28.9417C94.7951 29.4328 94.4514 30.0467 93.727 30.1572H93.7147C93.8621 29.7888 93.7393 29.4942 93.5428 29.2977C93.1131 28.868 92.708 29.0645 92.3642 29.4082C92.18 29.5924 91.9099 29.9362 91.7626 30.1449L90.6699 29.0522C91.9836 28.0332 92.7203 27.3088 93.7147 26.0197V26.0074Z" fill="white"/>
<path d="M96.9926 29.3959L98.0117 30.55C96.6612 31.4585 95.8754 32.1461 94.7827 33.3861L93.7637 32.232C95.1387 31.2989 95.9245 30.6114 96.9926 29.3959Z" fill="white"/>
<path d="M97.0174 35.7189C97.3857 36.1977 98.3925 36.7747 99.3992 36.7133V36.7379L98.3556 37.3518C97.6927 37.1062 97.1279 36.5292 96.7105 35.9644C96.0966 35.1541 95.2863 33.5335 96.8087 32.3794C98.4293 31.1394 99.6816 32.4162 100.295 33.2265C100.725 33.7913 101.13 34.5402 101.204 35.1664L100.124 36.2468L100.099 36.2222C100.492 34.7244 100.357 33.9755 99.9026 33.3861C99.3133 32.6127 98.3065 32.8459 97.5822 33.3984C96.7596 34.0246 96.4404 34.9699 97.0174 35.7066V35.7189Z" fill="white"/>
<path d="M102.001 35.7557L104.064 39.0583L103.119 39.8564V39.8318C103.143 38.69 103.02 38.1743 102.48 37.229C101.829 37.5359 101.301 37.8306 100.774 38.1621C101.412 38.0761 101.842 38.3462 102.038 38.6532C102.406 39.2425 101.94 39.7704 101.203 39.709C101.424 39.3775 101.375 39.0706 101.228 38.8373C100.909 38.334 100.467 38.4199 100.074 38.6654C99.865 38.7882 99.6563 38.9478 99.4844 39.1074C100.086 40.0037 100.503 40.3352 101.547 40.8017V40.8263L100.43 41.3297L98.3672 38.027C99.8773 37.3272 100.761 36.7747 102.014 35.7434L102.001 35.7557Z" fill="white"/>
<path d="M106.127 43.8097C104.924 44.2026 103.88 44.7796 102.591 45.5777L101.916 44.1903C103.34 43.6746 104.457 43.2204 105.501 42.5206C105.108 42.0172 104.568 41.612 103.942 41.3297V41.3051L105.108 40.9245L107.134 45.1234L106.103 45.8232V45.7987C106.25 45.1234 106.262 44.4481 106.103 43.822L106.127 43.8097Z" fill="white"/>
<path d="M107.477 45.8846L108.201 47.8122C108.68 49.0767 108.778 50.194 107.931 50.5132C107.219 50.7833 106.421 49.9362 106.089 49.0031C106.261 49.8011 105.905 50.5623 106.114 51.0902C106.151 51.2007 106.249 51.3358 106.421 51.3849V51.4095C105.881 51.6918 105.046 51.8637 104.751 51.1025C104.272 49.8379 105.991 49.6538 105.611 48.07C105.107 48.2787 104.592 48.5242 103.99 48.8435L103.438 47.3947C105.058 47.0018 106.028 46.6335 107.465 45.8723L107.477 45.8846ZM107.489 49.2977C108.115 49.0645 108.005 48.3892 107.649 47.4193C107.059 47.5666 106.556 47.7262 106.053 47.9104C106.458 48.9171 106.875 49.531 107.489 49.2977Z" fill="white"/>
<path d="M106.925 51.8269C107.6 51.6428 108.423 51.4095 109.368 50.9921L109.785 52.5022C109.024 52.6004 108.447 52.6864 107.895 52.8337C106.876 53.1161 105.918 53.5089 106.262 54.7735C106.544 55.8048 107.416 55.9767 107.981 55.8171C108.742 55.6084 109.785 55.326 110.461 54.9331L110.682 55.7312C109.921 55.7926 108.754 56.1118 108.067 56.3082C107.146 56.566 106.213 56.0381 105.894 54.884C105.488 53.423 105.623 52.2075 106.937 51.8392L106.925 51.8269Z" fill="white"/>
<path d="M110.289 57.8674C109.921 57.9288 109.896 58.5672 109.847 59.3039C109.786 60.3597 109.724 61.6611 108.656 61.8576C107.551 62.054 107.122 60.4825 106.95 59.5985C106.827 58.8987 106.888 57.9779 107.048 57.4009L108.374 56.9466V56.9711C107.465 57.9165 107.208 58.7759 107.355 59.5985C107.478 60.2492 107.797 60.6667 108.116 60.6053C108.472 60.5439 108.509 59.9177 108.546 59.1934C108.607 58.1743 108.681 56.9466 109.675 56.7747C110.768 56.5783 111.186 57.806 111.357 58.7636C111.468 59.3898 111.48 60.3474 111.333 60.7772L109.995 61.1946V61.17C110.854 60.2983 111.075 59.4635 110.94 58.7391C110.829 58.1007 110.535 57.8183 110.265 57.8674H110.289Z" fill="white"/>
<path d="M111.773 65.1111C110.521 65.062 109.33 65.2339 107.845 65.5408L107.697 64.0061C109.207 64.0184 110.411 63.9816 111.638 63.6869C111.442 63.0853 111.086 62.5205 110.595 62.0294V62.0049L111.835 62.054L112.277 66.6949L111.074 66.9895V66.965C111.454 66.3879 111.7 65.7618 111.773 65.1234V65.1111Z" fill="white"/>
<path d="M112.314 67.4929L112.375 71.3849L111.147 71.5813V71.5568C111.774 70.5991 111.933 70.0957 111.958 69.003C111.246 68.9294 110.644 68.9171 110.018 68.9171C110.607 69.1749 110.841 69.6415 110.841 69.9975C110.841 70.6973 110.19 70.8938 109.576 70.4763V70.4518C109.92 70.3045 110.043 69.9975 110.043 69.7274C110.043 69.1381 109.601 68.9785 109.134 68.9785C108.888 68.9785 108.631 69.003 108.397 69.0522C108.446 70.1326 108.643 70.6359 109.281 71.569V71.5936L108.054 71.4463L107.992 67.5543C109.65 67.7385 110.681 67.7262 112.302 67.4929H112.314Z" fill="white"/>
<path d="M112.351 72.2443L112.13 76.1363L110.89 76.2345V76.21C111.589 75.2892 111.786 74.8103 111.884 73.7176C111.172 73.5949 110.57 73.5335 109.957 73.4966C110.534 73.8036 110.73 74.2701 110.706 74.6262C110.669 75.326 109.981 75.4856 109.404 75.0068V74.9822C109.76 74.8594 109.907 74.5648 109.92 74.2947C109.957 73.7054 109.527 73.5212 109.073 73.4844C108.827 73.4721 108.569 73.4844 108.336 73.5089C108.311 74.5893 108.459 75.105 109.036 76.0872V76.1117L107.82 75.8662L108.041 71.9742C109.674 72.2812 110.718 72.3303 112.338 72.2198L112.351 72.2443Z" fill="white"/>
<path d="M111.908 78.2849L111.675 79.8073C110.239 79.4021 109.244 79.2425 107.808 79.1811C107.71 80.1756 107.808 80.6667 108.287 81.698L107.096 81.3419L107.648 77.6342C109.244 78.0884 110.276 78.2358 111.908 78.2726V78.2849Z" fill="white"/>
<path d="M111.196 82.6556L110.889 84.1657C109.342 83.6378 108.323 83.429 106.666 83.3063L106.973 81.7961C108.544 82.3364 109.563 82.5328 111.196 82.6556Z" fill="white"/>
<path d="M110.767 84.9392L110.387 86.3142L107.858 87.0141L109.748 88.6101L109.343 90.0957C107.845 89.4696 106.839 89.1872 105.193 88.9539L105.599 87.4683C106.814 87.9717 107.686 88.2541 108.803 88.4628L106.188 86.2283V86.2037L109.478 85.2952C108.496 84.9514 107.624 84.7427 106.409 84.5708L106.618 83.7974C108.152 84.4358 109.147 84.7182 110.767 84.9392Z" fill="white"/>
<path d="M109.036 90.8814L108.52 92.3424C107.072 91.6058 106.089 91.262 104.469 90.906L104.984 89.4449C106.47 90.1939 107.452 90.5376 109.036 90.8814Z" fill="white"/>
<path d="M106.79 95.7188C105.709 95.0681 104.58 94.663 103.131 94.2333L103.732 92.8091C105.058 93.5457 106.127 94.0736 107.354 94.4051C107.477 93.779 107.416 93.116 107.232 92.453V92.4285L108.312 93.0669L106.495 97.364L105.292 97.0448V97.0202C105.918 96.701 106.434 96.259 106.802 95.7434L106.79 95.7188Z" fill="white"/>
<path d="M106.115 98.0883L104.298 101.538L103.132 101.121V101.096C104.151 100.556 104.544 100.188 105.084 99.2424C104.495 98.8373 103.967 98.5303 103.426 98.2357C103.832 98.7513 103.807 99.267 103.647 99.5739C103.328 100.188 102.641 100.053 102.309 99.3775C102.69 99.3897 102.935 99.1933 103.058 98.9478C103.328 98.4198 103.034 98.0761 102.616 97.8673C102.407 97.7568 102.162 97.6463 101.941 97.585C101.474 98.5549 101.388 99.0951 101.511 100.225V100.249L100.492 99.5248L102.309 96.0748C103.672 97.0325 104.593 97.5113 106.115 98.0761V98.0883Z" fill="white"/>
<path d="M103.844 102.324L102.702 104.092C101.879 105.381 100.873 105.946 99.5466 105.099C98.147 104.202 98.282 103.024 99.1046 101.735L100.222 99.9913C101.499 101.059 102.37 101.624 103.844 102.324ZM100.246 104.006C101.437 104.78 102.088 104.313 102.726 103.38C101.72 102.557 100.922 102.042 99.7431 101.452C99.166 102.422 98.9696 103.171 100.246 104.006Z" fill="white"/>
</g>
<defs>
<clipPath id="clip0_338_760">
<rect width="118.784" height="133.37" fill="white" transform="translate(0.982422 0.629883)"/>
</clipPath>
</defs>
</svg>
