<svg width="69" height="70" viewBox="0 0 69 70" fill="none" xmlns="http://www.w3.org/2000/svg">
<circle cx="34.7333" cy="34.9088" r="34.2176" fill="white"/>
<path d="M37.5954 22.4412L40.2354 27.7212C40.5954 28.4562 41.5554 29.1612 42.3654 29.2962L47.1504 30.0912C50.2104 30.6012 50.9304 32.8212 48.7254 35.0112L45.0054 38.7312C44.3754 39.3612 44.0304 40.5762 44.2254 41.4462L45.2904 46.0512C46.1304 49.6962 44.1954 51.1062 40.9704 49.2012L36.4854 46.5462C35.6754 46.0662 34.3404 46.0662 33.5154 46.5462L29.0304 49.2012C25.8204 51.1062 23.8704 49.6812 24.7104 46.0512L25.7754 41.4462C25.9704 40.5762 25.6254 39.3612 24.9954 38.7312L21.2754 35.0112C19.0854 32.8212 19.7904 30.6012 22.8504 30.0912L27.6354 29.2962C28.4304 29.1612 29.3904 28.4562 29.7504 27.7212L32.3904 22.4412C33.8304 19.5762 36.1704 19.5762 37.5954 22.4412Z" stroke="#181818" stroke-width="2.25" stroke-linecap="round" stroke-linejoin="round"/>
</svg>
